<svg width="167" height="53" viewBox="0 0 167 53" fill="none" xmlns="http://www.w3.org/2000/svg">
<path d="M70.3 31.7C69.6 29.9 67.8 28.9 66 29.1L54.6 30.4H54.5C54 30.5 53.8 30.2 53.7 30.1C53.6 30 53.4 29.6 53.7 29.3L55.3 27.1C56 27.2 56.7 27.3 57.4 27.3C63.2 27.3 67.8999 23 67.8999 17.8C67.8999 12.5 63.2 8.29999 57.4 8.29999C51.6 8.29999 46.9 12.6 46.9 17.8C46.9 21.3 48.9 24.3 52 26L50.9 27.5C49.9 28.9 49.9 30.7 50.9 32.1C51.8 33.5 53.5 34.2 55.1 33.9L66.3999 32.6C66.6999 32.6 66.9 32.7 67 32.8C67.1 32.9 67.2 33.1 67.2 33.4C66.7 35.6 66.1 38.2 65.6 40C65.4 40.9 64.6 41.6 63.6 41.7L55.7 42.2C54.6 42.3 53.6 41.7 53.1 40.7L49.8 34L49.7 33.9C49 33 48 32.5 46.9 32.5H45.4C44.5 32.5 43.7 33.3 43.7 34.2C43.7 35.1 44.5 35.9 45.4 35.9H46.9L50 42.2C51 44.3 53.1 45.6 55.5 45.6C55.6 45.6 55.8 45.6 55.9 45.6L63.7 45.1C66.2 44.9 68.2 43.2 68.8 40.8C69.2 39 69.7999 36.4 70.3999 34.2C70.5999 33.3 70.6 32.5 70.3 31.7ZM50.2 17.7C50.2 14.3 53.4 11.5 57.3 11.5C61.2 11.5 64.3999 14.3 64.3999 17.7C64.3999 21.1 61.2 23.9 57.3 23.9C53.4 23.9 50.2 21.1 50.2 17.7Z" fill="#EC2027"/>
<path d="M56.5 47.8C55.3 47.8 54.2 48.8 54.2 50.1C54.2 51.3 55.2 52.4 56.5 52.4C57.7 52.4 58.8 51.4 58.8 50.1C58.8 48.8 57.8 47.8 56.5 47.8Z" fill="#EC2027"/>
<path d="M64 47.3C62.8 47.3 61.7 48.3 61.7 49.6C61.7 50.9 62.7 51.9 64 51.9C65.2 51.9 66.3 50.9 66.3 49.6C66.3 48.3 65.3 47.3 64 47.3Z" fill="#EC2027"/>
<path d="M79.2 38.4L78.3 36.2H77.7L78.8999 39H79.3999L80.7 36.3L80.2 36.2L79.2 38.4Z" fill="white"/>
<path d="M81.3999 35.9H81.7999L82.2999 35.5L82.7999 35.9H83.2999L82.5999 35.2H82.0999L81.3999 35.9Z" fill="white"/>
<path d="M83.0999 36.7C82.9999 36.6 82.8999 36.4 82.6999 36.4C82.4999 36.3 82.3999 36.3 82.1999 36.3C81.8999 36.3 81.6999 36.4 81.4999 36.5C81.2999 36.6 81.0999 36.8 80.9999 37C80.8999 37.2 80.7999 37.5 80.7999 37.7C80.7999 38 80.8999 38.2 80.9999 38.4C81.0999 38.6 81.2999 38.8 81.4999 38.9C81.6999 39 81.8999 39.1 82.1999 39.1C82.3999 39.1 82.5999 39.1 82.7999 39C82.9999 38.9 83.0999 38.8 83.1999 38.7V39.1H83.6999V36.3H83.1999L83.0999 36.7ZM82.9999 38.2C82.8999 38.3 82.7999 38.5 82.6999 38.5C82.5999 38.6 82.3999 38.6 82.1999 38.6C81.9999 38.6 81.8999 38.6 81.6999 38.5C81.5999 38.4 81.4999 38.3 81.3999 38.2C81.2999 38.1 81.2999 37.9 81.2999 37.7C81.2999 37.5 81.2999 37.3 81.3999 37.2C81.4999 37.1 81.5999 36.9 81.6999 36.9C81.7999 36.8 81.9999 36.8 82.1999 36.8C82.3999 36.8 82.4999 36.8 82.6999 36.9C82.7999 37 82.9999 37.1 82.9999 37.2C83.0999 37.3 83.0999 37.5 83.0999 37.7C83.0999 37.8 83.0999 38 82.9999 38.2Z" fill="white"/>
<path d="M86.0999 36.3C85.8999 36.3 85.6998 36.3 85.4998 36.4C85.2998 36.5 85.1999 36.6 85.0999 36.7V36.3H84.5999V39.1H85.0999V37.7C85.0999 37.4 85.1999 37.2 85.2999 37C85.4999 36.8 85.6998 36.8 85.8998 36.8C86.0998 36.8 86.2998 36.9 86.3998 37C86.4998 37.1 86.5999 37.3 86.5999 37.6V39.1H87.0999V37.5C87.0999 37.1 86.9999 36.8 86.7999 36.6C86.6999 36.4 86.3999 36.3 86.0999 36.3Z" fill="white"/>
<path d="M90.0999 36.7V36.3H87.8999V36.7H89.4999L87.7999 38.7V39.1H90.0999L90.1999 38.7H88.4999L90.0999 36.7Z" fill="white"/>
<path d="M92.8998 36.8C92.7998 36.7 92.6998 36.5 92.4998 36.5C92.2998 36.4 92.1998 36.4 91.9998 36.4C91.6998 36.4 91.4999 36.5 91.2999 36.6C91.0999 36.7 90.8999 36.9 90.7999 37.1C90.6999 37.3 90.5999 37.6 90.5999 37.8C90.5999 38.1 90.6999 38.3 90.7999 38.5C90.8999 38.7 91.0999 38.9 91.2999 39C91.4999 39.1 91.6998 39.2 91.9998 39.2C92.1998 39.2 92.3999 39.2 92.5999 39.1C92.7999 39 92.8998 38.9 92.9998 38.8V39.2H93.4998V36.4H92.9998L92.8998 36.8ZM92.7999 38.2C92.6999 38.3 92.5998 38.5 92.4998 38.5C92.3998 38.6 92.1998 38.6 91.9998 38.6C91.7998 38.6 91.6998 38.6 91.4998 38.5C91.3998 38.4 91.2998 38.3 91.1998 38.2C91.0998 38.1 91.0999 37.9 91.0999 37.7C91.0999 37.5 91.0998 37.3 91.1998 37.2C91.2998 37.1 91.3998 36.9 91.4998 36.9C91.5998 36.9 91.7998 36.8 91.9998 36.8C92.1998 36.8 92.2998 36.8 92.4998 36.9C92.5998 37 92.7999 37.1 92.7999 37.2C92.8999 37.3 92.8998 37.5 92.8998 37.7C92.8998 37.9 92.7999 38.1 92.7999 38.2Z" fill="white"/>
<path d="M94.7999 36.8V36.3H94.2999V39.1H94.7999V37.7C94.7999 37.4 94.8999 37.2 94.9999 37C95.1999 36.8 95.3999 36.8 95.5999 36.8H95.6999V36.3C95.4999 36.3 95.2999 36.3 95.0999 36.4C94.9999 36.6 94.8999 36.7 94.7999 36.8Z" fill="white"/>
<path d="M98.1998 36.6C97.9998 36.5 97.7998 36.4 97.4998 36.4C97.1998 36.4 96.9999 36.5 96.7999 36.6C96.5999 36.7 96.3999 36.9 96.2999 37.1C96.1999 37.3 96.0999 37.6 96.0999 37.8C96.0999 38.1 96.1999 38.3 96.2999 38.5C96.3999 38.7 96.5999 38.9 96.7999 39C96.9999 39.1 97.2999 39.2 97.5999 39.2C97.7999 39.2 97.9998 39.2 98.1998 39.1C98.3998 39 98.4998 38.9 98.6998 38.8L98.3998 38.5C98.1998 38.7 97.8999 38.8 97.5999 38.8C97.2999 38.8 97.0998 38.7 96.8998 38.6C96.6998 38.5 96.5999 38.3 96.5999 38H98.7999C98.7999 37.9 98.7999 37.9 98.7999 37.8C98.7999 37.5 98.6999 37.3 98.5999 37.1C98.5999 36.8 98.3998 36.7 98.1998 36.6ZM96.5999 37.6C96.5999 37.4 96.6998 37.2 96.8998 37C97.0998 36.9 97.2998 36.8 97.4998 36.8C97.6998 36.8 97.8999 36.9 98.0999 37C98.2999 37.1 98.3998 37.3 98.3998 37.6H96.5999Z" fill="white"/>
<path d="M104.5 36.9C104.4 36.8 104.3 36.6 104.1 36.6C103.9 36.5 103.8 36.5 103.6 36.5C103.3 36.5 103.1 36.6 102.9 36.7C102.7 36.8 102.5 37 102.4 37.2C102.3 37.4 102.2 37.7 102.2 37.9C102.2 38.1 102.3 38.4 102.4 38.6C102.5 38.8 102.7 39 102.9 39.1C103.1 39.2 103.3 39.3 103.6 39.3C103.8 39.3 104 39.3 104.2 39.2C104.4 39.1 104.5 39 104.6 38.9V39.3H105.1V36.5H104.6L104.5 36.9ZM104.3 38.3C104.2 38.4 104.1 38.6 104 38.6C103.9 38.6 103.7 38.7 103.5 38.7C103.3 38.7 103.2 38.7 103 38.6C102.9 38.5 102.8 38.4 102.7 38.3C102.6 38.2 102.6 38 102.6 37.8C102.6 37.6 102.6 37.4 102.7 37.3C102.8 37.2 102.9 37 103 37C103.1 36.9 103.3 36.9 103.5 36.9C103.7 36.9 103.8 36.9 104 37C104.1 37.1 104.3 37.2 104.3 37.3C104.4 37.4 104.4 37.6 104.4 37.8C104.4 38 104.4 38.2 104.3 38.3Z" fill="white"/>
<path d="M107.4 36.5C107.2 36.5 107 36.5 106.8 36.6C106.6 36.7 106.5 36.8 106.4 36.9V36.5H105.9V39.3H106.4V37.9C106.4 37.6 106.5 37.4 106.6 37.2C106.8 37 107 37 107.2 37C107.4 37 107.6 37.1 107.7 37.2C107.8 37.3 107.9 37.5 107.9 37.8V39.3H108.4V37.7C108.4 37.3 108.3 37 108.1 36.8C108 36.6 107.7 36.5 107.4 36.5Z" fill="white"/>
<path d="M111.6 36.9C111.5 36.8 111.3 36.6 111.2 36.6C111 36.5 110.8 36.5 110.6 36.5C110.3 36.5 110.1 36.6 109.9 36.7C109.7 36.8 109.5 37 109.4 37.2C109.3 37.4 109.2 37.6 109.2 37.9C109.2 38.2 109.3 38.4 109.4 38.6C109.5 38.8 109.7 39 109.9 39.1C110.1 39.2 110.3 39.3 110.6 39.3C110.8 39.3 111 39.3 111.2 39.2C111.4 39.1 111.5 39 111.6 38.9V39.1C111.6 39.4 111.5 39.6 111.4 39.8C111.2 40 111 40 110.7 40C110.5 40 110.3 40 110.1 39.9C109.9 39.8 109.8 39.7 109.6 39.6L109.4 40C109.5 40.1 109.7 40.2 110 40.3C110.2 40.4 110.5 40.4 110.7 40.4C111.2 40.4 111.5 40.3 111.8 40.1C112.1 39.9 112.2 39.5 112.2 39V36.6H111.7L111.6 36.9ZM111.5 38.3C111.4 38.4 111.3 38.5 111.2 38.6C111.1 38.7 110.9 38.7 110.7 38.7C110.5 38.7 110.4 38.7 110.2 38.6C110.1 38.5 109.9 38.4 109.9 38.3C109.8 38.2 109.8 38 109.8 37.8C109.8 37.5 109.9 37.3 110.1 37.2C110.3 37.1 110.5 37 110.8 37C111.1 37 111.3 37.1 111.5 37.3C111.7 37.5 111.8 37.7 111.8 37.9C111.6 38 111.6 38.2 111.5 38.3Z" fill="white"/>
<path d="M113.5 37V36.5H113V39.3H113.5V37.9C113.5 37.6 113.6 37.4 113.7 37.2C113.9 37 114.1 37 114.3 37H114.4V36.5C114.2 36.5 114 36.5 113.8 36.6C113.8 36.7 113.6 36.8 113.5 37Z" fill="white"/>
<path d="M117 36.7C116.8 36.6 116.5 36.5 116.3 36.5C116 36.5 115.8 36.6 115.6 36.7C115.4 36.8 115.2 37 115.1 37.2C115 37.4 114.9 37.7 114.9 37.9C114.9 38.2 115 38.4 115.1 38.6C115.2 38.8 115.4 39 115.6 39.1C115.8 39.2 116.1 39.3 116.3 39.3C116.6 39.3 116.8 39.2 117 39.1C117.2 39 117.4 38.8 117.5 38.6C117.6 38.4 117.7 38.1 117.7 37.9C117.7 37.6 117.6 37.4 117.5 37.2C117.4 37 117.3 36.8 117 36.7ZM117.1 38.4C117 38.5 116.9 38.7 116.8 38.7C116.7 38.8 116.5 38.8 116.3 38.8C116.1 38.8 116 38.8 115.8 38.7C115.7 38.6 115.6 38.5 115.5 38.4C115.4 38.3 115.4 38.1 115.4 37.9C115.4 37.7 115.4 37.5 115.5 37.4C115.6 37.3 115.7 37.1 115.8 37.1C115.9 37 116.1 37 116.3 37C116.5 37 116.6 37 116.8 37.1C116.9 37.2 117 37.3 117.1 37.4C117.2 37.5 117.2 37.7 117.2 37.9C117.2 38.1 117.2 38.3 117.1 38.4Z" fill="white"/>
<path d="M122 39.9C121.9 39.9 121.9 39.9 121.8 40C121.8 40 121.7 40.1 121.7 40.2C121.7 40.3 121.7 40.3 121.7 40.3L121.8 40.4L121.7 40.8H122L122.2 40.4C122.2 40.3 122.3 40.2 122.3 40.1C122.3 40 122.3 40 122.2 39.9C122.1 39.8 122.1 39.9 122 39.9Z" fill="white"/>
<path d="M122.7 37.9C122.6 37.9 122.4 37.8 122.2 37.8C122 37.8 121.9 37.7 121.8 37.7C121.7 37.7 121.6 37.6 121.6 37.6C121.6 37.6 121.5 37.5 121.5 37.4C121.5 37.3 121.6 37.2 121.7 37.1C121.8 37 122 37 122.2 37C122.5 37 122.8 37.1 123 37.2L123.2 36.8C123.1 36.7 122.9 36.7 122.7 36.6C122.5 36.6 122.3 36.5 122.2 36.5C121.9 36.5 121.6 36.6 121.4 36.7C121.2 36.8 121.1 37 121.1 37.3C121.1 37.5 121.1 37.6 121.2 37.8C121.3 37.9 121.4 38 121.6 38C121.7 38 121.9 38.1 122.1 38.1C122.3 38.1 122.4 38.2 122.5 38.2C122.6 38.2 122.7 38.3 122.7 38.3C122.8 38.3 122.8 38.4 122.8 38.5C122.8 38.7 122.6 38.9 122.1 38.9C121.9 38.9 121.7 38.9 121.6 38.8C121.4 38.7 121.3 38.7 121.2 38.6L121 39C121.1 39.1 121.3 39.2 121.5 39.2C121.7 39.3 121.9 39.3 122.1 39.3C122.5 39.3 122.8 39.2 123 39.1C123.2 39 123.3 38.8 123.3 38.5C123.3 38.3 123.3 38.2 123.2 38.1C122.9 38 122.8 38 122.7 37.9Z" fill="white"/>
<path d="M123.894 36.5561L123.87 39.3561L124.37 39.3604L124.394 36.5604L123.894 36.5561Z" fill="white"/>
<path d="M124.1 35.4C124 35.4 123.9 35.4 123.9 35.5C123.8 35.6 123.8 35.6 123.8 35.7C123.8 35.8 123.8 35.9 123.9 35.9C124 36 124 36 124.1 36C124.2 36 124.3 36 124.3 35.9C124.4 35.8 124.4 35.8 124.4 35.7C124.4 35.6 124.4 35.5 124.3 35.5C124.3 35.5 124.2 35.4 124.1 35.4Z" fill="white"/>
<path d="M128.8 37.2C128.9 37.1 129.1 37.1 129.3 37.1C129.5 37.1 129.6 37.1 129.7 37.2C129.8 37.3 129.9 37.4 130 37.5L130.4 37.3C130.3 37.1 130.1 37 129.9 36.9C129.7 36.8 129.5 36.7 129.2 36.7C128.9 36.7 128.7 36.8 128.4 36.9C128.2 37 128 37.2 127.9 37.4C127.8 37.6 127.7 37.9 127.7 38.1C127.7 38.4 127.8 38.6 127.9 38.8C128 39 128.2 39.2 128.4 39.3C128.6 39.4 128.9 39.5 129.1 39.5C129.3 39.5 129.6 39.5 129.8 39.4C130 39.3 130.1 39.2 130.3 39L129.9 38.8C129.8 38.9 129.7 39 129.6 39.1C129.5 39.2 129.3 39.2 129.2 39.2C129 39.2 128.9 39.2 128.7 39.1C128.6 39 128.4 38.9 128.4 38.8C128.3 38.7 128.3 38.5 128.3 38.3C128.3 38.1 128.3 37.9 128.4 37.8C128.5 37.4 128.6 37.3 128.8 37.2Z" fill="white"/>
<path d="M133.1 38.1C133.1 38.4 133 38.6 132.9 38.8C132.7 39 132.5 39 132.3 39C132.1 39 131.9 38.9 131.8 38.8C131.7 38.7 131.6 38.5 131.6 38.2V36.7H131.1V38.3C131.1 38.7 131.2 39 131.4 39.2C131.6 39.4 131.9 39.5 132.3 39.5C132.5 39.5 132.7 39.5 132.8 39.4C133 39.3 133.1 39.2 133.2 39.1V39.5H133.7V36.7H133.2L133.1 38.1Z" fill="white"/>
<path d="M139.4 37.2C139.3 37.1 139.2 36.9 139 36.9C138.8 36.8 138.7 36.8 138.5 36.8C138.2 36.8 138 36.9 137.8 37C137.6 37.1 137.4 37.3 137.3 37.5C137.2 37.7 137.1 38 137.1 38.2C137.1 38.5 137.2 38.7 137.3 38.9C137.4 39.1 137.6 39.3 137.8 39.4C138 39.5 138.2 39.6 138.5 39.6C138.7 39.6 138.9 39.6 139.1 39.5C139.3 39.4 139.4 39.3 139.5 39.2V39.6H140V36.8H139.5L139.4 37.2ZM139.3 38.6C139.2 38.7 139.1 38.9 139 38.9C138.9 39 138.7 39 138.5 39C138.3 39 138.2 39 138 38.9C137.9 38.8 137.8 38.7 137.7 38.6C137.6 38.5 137.6 38.3 137.6 38.1C137.6 37.9 137.6 37.7 137.7 37.6C137.8 37.5 137.9 37.3 138 37.3C138.1 37.2 138.3 37.2 138.5 37.2C138.7 37.2 138.8 37.2 139 37.3C139.1 37.4 139.3 37.5 139.3 37.6C139.4 37.7 139.4 37.9 139.4 38.1C139.4 38.3 139.4 38.5 139.3 38.6Z" fill="white"/>
<path d="M144.3 36.8C144.1 36.8 143.9 36.8 143.7 36.9C143.5 37 143.4 37.1 143.3 37.3C143.2 37.1 143.1 37 142.9 36.9C142.7 36.8 142.5 36.8 142.3 36.8C142.1 36.8 141.9 36.8 141.7 36.9C141.5 37 141.4 37.1 141.3 37.2V36.8H140.8V39.6H141.3V38.2C141.3 37.9 141.4 37.7 141.5 37.5C141.7 37.3 141.9 37.3 142.1 37.3C142.3 37.3 142.5 37.4 142.6 37.5C142.7 37.6 142.8 37.8 142.8 38.1V39.6H143.3V38.2C143.3 37.9 143.4 37.7 143.5 37.5C143.7 37.3 143.9 37.3 144.1 37.3C144.3 37.3 144.5 37.4 144.6 37.5C144.7 37.6 144.8 37.8 144.8 38.1V39.6H145.3V38C145.3 37.6 145.2 37.3 145 37.1C145 36.9 144.7 36.8 144.3 36.8Z" fill="white"/>
<path d="M148.5 37.3C148.4 37.2 148.3 37 148.1 37C147.9 36.9 147.8 36.9 147.6 36.9C147.3 36.9 147.1 37 146.9 37.1C146.7 37.2 146.5 37.4 146.4 37.6C146.3 37.8 146.2 38.1 146.2 38.3C146.2 38.5 146.3 38.8 146.4 39C146.5 39.2 146.7 39.4 146.9 39.5C147.1 39.6 147.3 39.7 147.6 39.7C147.8 39.7 148 39.7 148.2 39.6C148.4 39.5 148.5 39.4 148.6 39.3V39.7H149.1V36.9H148.6L148.5 37.3ZM148.4 38.7C148.3 38.8 148.2 39 148.1 39C148 39.1 147.8 39.1 147.6 39.1C147.4 39.1 147.3 39.1 147.1 39C146.9 38.9 146.9 38.8 146.8 38.7C146.7 38.6 146.7 38.4 146.7 38.2C146.7 38 146.7 37.8 146.8 37.7C146.9 37.6 147 37.4 147.1 37.4C147.2 37.3 147.4 37.3 147.6 37.3C147.8 37.3 147.9 37.3 148.1 37.4C148.2 37.5 148.4 37.6 148.4 37.7C148.5 37.8 148.5 38 148.5 38.2C148.5 38.4 148.4 38.6 148.4 38.7Z" fill="white"/>
<path d="M148.3 36.3C148.5 36.2 148.5 36 148.6 35.8H148.3C148.3 35.9 148.2 36 148.1 36.1C148 36.2 147.9 36.2 147.7 36.2C147.6 36.2 147.4 36.2 147.3 36.1C147.2 36 147.2 35.9 147.2 35.8H146.9C146.9 36 147 36.2 147.1 36.3C147.3 36.4 147.5 36.5 147.7 36.5C147.9 36.5 148.1 36.4 148.3 36.3Z" fill="white"/>
<path d="M151.4 36.8C151.2 36.8 151 36.8 150.8 36.9C150.6 37 150.5 37.1 150.4 37.2V36.8H149.9V39.6H150.4V38.2C150.4 37.9 150.5 37.7 150.6 37.5C150.8 37.3 151 37.3 151.2 37.3C151.4 37.3 151.6 37.4 151.7 37.5C151.8 37.6 151.9 37.8 151.9 38.1V39.6H152.4V38C152.4 37.6 152.3 37.3 152.1 37.1C152 36.9 151.8 36.8 151.4 36.8Z" fill="white"/>
<path d="M155.5 38.3C155.5 38.6 155.4 38.8 155.3 39C155.1 39.2 154.9 39.2 154.7 39.2C154.5 39.2 154.3 39.1 154.2 39C154.1 38.9 154 38.7 154 38.4V36.9H153.5V38.5C153.5 38.9 153.6 39.2 153.8 39.4C154 39.6 154.3 39.7 154.7 39.7C154.9 39.7 155.1 39.7 155.2 39.6C155.4 39.5 155.5 39.4 155.6 39.3V39.7H156.1V36.9H155.6L155.5 38.3Z" fill="white"/>
<path d="M158.5 36.9C158.3 36.9 158.1 36.9 157.9 37C157.7 37.1 157.6 37.2 157.5 37.3V36.9H157V39.7H157.5V38.3C157.5 38 157.6 37.8 157.7 37.6C157.9 37.4 158.1 37.4 158.3 37.4C158.5 37.4 158.7 37.5 158.8 37.6C158.9 37.7 159 37.9 159 38.2V39.7H159.5V38.1C159.5 37.7 159.4 37.4 159.2 37.2C159.1 37 158.8 36.9 158.5 36.9Z" fill="white"/>
<path d="M161.5 39.3C161.4 39.3 161.3 39.3 161.2 39.2C161.1 39.1 161.1 39 161.1 38.9V37.4H161.9V37H161.1V36.4H160.6V37H160.1V37.4H160.6V38.9C160.6 39.2 160.7 39.4 160.8 39.5C161 39.7 161.2 39.7 161.4 39.7C161.5 39.7 161.6 39.7 161.7 39.7C161.8 39.7 161.9 39.6 162 39.6L161.8 39.2C161.8 39.3 161.7 39.3 161.5 39.3Z" fill="white"/>
<path d="M164.7 38.4C164.7 38.7 164.6 38.9 164.5 39.1C164.3 39.3 164.1 39.3 163.9 39.3C163.7 39.3 163.5 39.2 163.4 39.1C163.3 39 163.2 38.8 163.2 38.5V37H162.7V38.6C162.7 39 162.8 39.3 163 39.5C163.2 39.7 163.5 39.8 163.9 39.8C164.1 39.8 164.3 39.8 164.4 39.7C164.6 39.6 164.7 39.5 164.8 39.4V39.8H165.3V37H164.8L164.7 38.4Z" fill="white"/>
<path d="M166.261 35.8482L166.227 39.7482L166.727 39.7526L166.761 35.8526L166.261 35.8482Z" fill="white"/>
<path d="M11.3999 8.09998C5.5999 8.09998 0.899902 12.8 0.899902 18.6C0.899902 24.4 5.5999 29.1 11.3999 29.1C14.0999 29.1 16.5999 28 18.4999 26.3V29.1H21.8999V18.6C21.8999 12.8 17.1999 8.09998 11.3999 8.09998ZM11.3999 25.7C7.4999 25.7 4.2999 22.5 4.2999 18.6C4.2999 14.7 7.4999 11.5 11.3999 11.5C15.2999 11.5 18.4999 14.7 18.4999 18.6C18.4999 22.5 15.2999 25.7 11.3999 25.7Z" fill="white"/>
<path d="M34.3999 8.09998C29.1999 8.09998 24.8999 12.3 24.8999 17.6V29.1H28.2999V17.6C28.2999 14.2 30.9999 11.5 34.3999 11.5C37.7999 11.5 40.4999 14.2 40.4999 17.6V29.1H43.8999V17.6C43.7999 12.4 39.5999 8.09998 34.3999 8.09998Z" fill="white"/>
<path d="M139.3 15.9V29.1H142.7V15.9C142.7 11.6 139.2 8.09998 134.9 8.09998C132.4 8.09998 130.2 9.3 128.8 11C127.4 9.2 125.2 8.09998 122.7 8.09998C118.4 8.09998 114.9 11.6 114.9 15.9V29.1H118.3V15.9C118.3 13.5 120.3 11.5 122.7 11.5C125.1 11.5 127.1 13.5 127.1 15.9V29.1H130.5V15.9C130.5 13.5 132.5 11.5 134.9 11.5C137.3 11.5 139.3 13.5 139.3 15.9Z" fill="white"/>
<path d="M93.8999 8.09998C88.0999 8.09998 83.3999 12.8 83.3999 18.6C83.3999 24.4 88.0999 29.1 93.8999 29.1C99.6999 29.1 104.4 24.4 104.4 18.6C104.4 12.8 99.6999 8.09998 93.8999 8.09998ZM93.8999 25.7C89.9999 25.7 86.7999 22.5 86.7999 18.6C86.7999 14.7 89.9999 11.5 93.8999 11.5C97.7999 11.5 101 14.7 101 18.6C101 22.5 97.7999 25.7 93.8999 25.7Z" fill="white"/>
<path d="M111.3 26.8C111.3 25.6 110.3 24.5 109 24.5C107.8 24.5 106.7 25.5 106.7 26.8C106.7 28 107.7 29.1 109 29.1C110.3 29.1 111.3 28.1 111.3 26.8Z" fill="white"/>
<path d="M82.0999 11.9V8.40002C81.4999 8.30002 80.7999 8.20001 80.0999 8.20001C74.8999 8.20001 70.5999 12.4 70.5999 17.7V29.2H73.9998V17.7C73.9998 14.3 76.6999 11.6 80.0999 11.6C80.7999 11.5 81.4999 11.6 82.0999 11.9Z" fill="white"/>
<path d="M163.3 29.1H166.7V0.5H163.3V10.9C161.4 9.20002 158.9 8.09998 156.2 8.09998C150.4 8.09998 145.7 12.8 145.7 18.6C145.7 24.4 150.4 29.1 156.2 29.1C158.9 29.1 161.4 28 163.3 26.3V29.1ZM156.2 25.7C152.3 25.7 149.1 22.5 149.1 18.6C149.1 14.7 152.3 11.5 156.2 11.5C160.1 11.5 163.3 14.7 163.3 18.6C163.3 22.5 160.1 25.7 156.2 25.7Z" fill="white"/>
</svg>
