<svg width="167" height="52" viewBox="0 0 167 52" fill="none" xmlns="http://www.w3.org/2000/svg">
<path d="M70.3 31.2C69.6 29.4 67.8 28.4 66 28.6L54.6 29.9H54.5C54 30 53.8 29.7 53.7 29.6C53.6 29.5 53.4 29.1 53.7 28.8L55.3 26.6C56 26.7 56.7 26.8 57.4 26.8C63.2 26.8 67.8999 22.5 67.8999 17.3C67.8999 12 63.2 7.79999 57.4 7.79999C51.6 7.79999 46.9 12.1 46.9 17.3C46.9 20.8 48.9 23.8 52 25.5L50.9 27C49.9 28.4 49.9 30.2 50.9 31.6C51.8 33 53.5 33.7 55.1 33.4L66.3999 32.1C66.6999 32.1 66.9 32.2 67 32.3C67.1 32.4 67.2 32.6 67.2 32.9C66.7 35.1 66.1 37.7 65.6 39.5C65.4 40.4 64.6 41.1 63.6 41.2L55.7 41.7C54.6 41.8 53.6 41.2 53.1 40.2L49.8 33.5L49.7 33.4C49 32.5 48 32 46.9 32H45.4C44.5 32 43.7 32.8 43.7 33.7C43.7 34.6 44.5 35.4 45.4 35.4H46.9L50 41.7C51 43.8 53.1 45.1 55.5 45.1C55.6 45.1 55.8 45.1 55.9 45.1L63.7 44.6C66.2 44.4 68.2 42.7 68.8 40.3C69.2 38.5 69.7999 35.9 70.3999 33.7C70.5999 32.9 70.6 32 70.3 31.2ZM50.2 17.2C50.2 13.8 53.4 11 57.3 11C61.2 11 64.3999 13.8 64.3999 17.2C64.3999 20.6 61.2 23.4 57.3 23.4C53.4 23.4 50.2 20.6 50.2 17.2Z" fill="#EC2027"/>
<path d="M56.5 47.4C55.3 47.4 54.2 48.4 54.2 49.7C54.2 50.9 55.2 52 56.5 52C57.7 52 58.8 51 58.8 49.7C58.8 48.4 57.8 47.4 56.5 47.4Z" fill="#EC2027"/>
<path d="M64 46.9C62.8 46.9 61.7 47.9 61.7 49.2C61.7 50.5 62.7 51.5 64 51.5C65.2 51.5 66.3 50.5 66.3 49.2C66.3 47.9 65.3 46.9 64 46.9Z" fill="#EC2027"/>
<path d="M79.2 38L78.3 35.8H77.7L78.8999 38.5H79.3999L80.7 35.8H80.2L79.2 38Z" fill="#2B2A2A"/>
<path d="M81.3999 35.4H81.7999L82.2999 35L82.7999 35.4H83.2999L82.5999 34.7H82.0999L81.3999 35.4Z" fill="#2B2A2A"/>
<path d="M83.0999 36.2C82.9999 36.1 82.8999 35.9 82.6999 35.9C82.4999 35.8 82.3999 35.8 82.1999 35.8C81.8999 35.8 81.6999 35.9 81.4999 36C81.2999 36.1 81.0999 36.3 80.9999 36.5C80.8999 36.7 80.7999 37 80.7999 37.2C80.7999 37.5 80.8999 37.7 80.9999 37.9C81.0999 38.1 81.2999 38.3 81.4999 38.4C81.6999 38.5 81.8999 38.6 82.1999 38.6C82.3999 38.6 82.5999 38.6 82.7999 38.5C82.9999 38.4 83.0999 38.3 83.1999 38.2V38.6H83.6999V35.8H83.1999L83.0999 36.2ZM82.9999 37.7C82.8999 37.8 82.7999 38 82.6999 38C82.5999 38.1 82.3999 38.1 82.1999 38.1C81.9999 38.1 81.8999 38.1 81.6999 38C81.5999 37.9 81.4999 37.8 81.3999 37.7C81.2999 37.6 81.2999 37.4 81.2999 37.2C81.2999 37 81.2999 36.8 81.3999 36.7C81.4999 36.6 81.5999 36.4 81.6999 36.4C81.7999 36.3 81.9999 36.3 82.1999 36.3C82.3999 36.3 82.4999 36.3 82.6999 36.4C82.7999 36.5 82.9999 36.6 82.9999 36.7C83.0999 36.8 83.0999 37 83.0999 37.2C83.0999 37.4 83.0999 37.6 82.9999 37.7Z" fill="#2B2A2A"/>
<path d="M86.0999 35.8C85.8999 35.8 85.6998 35.8 85.4998 35.9C85.2998 36 85.1999 36.1 85.0999 36.2V35.8H84.5999V38.6H85.0999V37.2C85.0999 36.9 85.1999 36.7 85.2999 36.5C85.4999 36.3 85.6998 36.3 85.8998 36.3C86.0998 36.3 86.2998 36.4 86.3998 36.5C86.4998 36.6 86.5999 36.8 86.5999 37.1V38.6H87.0999V37C87.0999 36.6 86.9999 36.3 86.7999 36.1C86.6999 35.9 86.3999 35.8 86.0999 35.8Z" fill="#2B2A2A"/>
<path d="M90.0999 36.2V35.9H87.8999V36.3H89.4999L87.7999 38.3V38.6H90.0999L90.1999 38.2H88.4999L90.0999 36.2Z" fill="#2B2A2A"/>
<path d="M92.8998 36.3C92.7998 36.2 92.6998 36 92.4998 36C92.2998 35.9 92.1998 35.9 91.9998 35.9C91.6998 35.9 91.4999 36 91.2999 36.1C91.0999 36.2 90.8999 36.4 90.7999 36.6C90.6999 36.8 90.5999 37.1 90.5999 37.3C90.5999 37.6 90.6999 37.8 90.7999 38C90.8999 38.2 91.0999 38.4 91.2999 38.5C91.4999 38.6 91.6998 38.7 91.9998 38.7C92.1998 38.7 92.3999 38.7 92.5999 38.6C92.7999 38.5 92.8998 38.4 92.9998 38.3V38.7H93.4998V35.9H92.9998L92.8998 36.3ZM92.7999 37.8C92.6999 37.9 92.5998 38.1 92.4998 38.1C92.3998 38.2 92.1998 38.2 91.9998 38.2C91.7998 38.2 91.6998 38.2 91.4998 38.1C91.3998 38 91.2998 37.9 91.1998 37.8C91.0998 37.7 91.0999 37.5 91.0999 37.3C91.0999 37.1 91.0998 36.9 91.1998 36.8C91.2998 36.7 91.3998 36.5 91.4998 36.5C91.5998 36.5 91.7998 36.4 91.9998 36.4C92.1998 36.4 92.2998 36.4 92.4998 36.5C92.5998 36.6 92.7999 36.7 92.7999 36.8C92.8999 36.9 92.8998 37.1 92.8998 37.3C92.8998 37.5 92.7999 37.6 92.7999 37.8Z" fill="#2B2A2A"/>
<path d="M94.7999 36.4V35.9H94.2999V38.7H94.7999V37.3C94.7999 37 94.8999 36.8 94.9999 36.6C95.1999 36.4 95.3999 36.4 95.5999 36.4H95.6999V35.9C95.4999 35.9 95.2999 35.9 95.0999 36C94.9999 36.1 94.8999 36.2 94.7999 36.4Z" fill="#2B2A2A"/>
<path d="M98.1998 36.1C97.9998 36 97.7998 35.9 97.4998 35.9C97.1998 35.9 96.9999 36 96.7999 36.1C96.5999 36.2 96.3999 36.4 96.2999 36.6C96.1999 36.8 96.0999 37.1 96.0999 37.3C96.0999 37.6 96.1999 37.8 96.2999 38C96.3999 38.2 96.5999 38.4 96.7999 38.5C96.9999 38.6 97.2999 38.7 97.5999 38.7C97.7999 38.7 97.9998 38.7 98.1998 38.6C98.3998 38.5 98.4998 38.4 98.6998 38.3L98.3998 38C98.1998 38.2 97.8999 38.3 97.5999 38.3C97.2999 38.3 97.0998 38.2 96.8998 38.1C96.6998 38 96.5999 37.8 96.5999 37.5H98.7999C98.7999 37.4 98.7999 37.4 98.7999 37.3C98.7999 37 98.6999 36.8 98.5999 36.6C98.5999 36.4 98.3998 36.2 98.1998 36.1ZM96.5999 37.1C96.5999 36.9 96.6998 36.7 96.8998 36.5C97.0998 36.4 97.2998 36.3 97.4998 36.3C97.6998 36.3 97.8999 36.4 98.0999 36.5C98.2999 36.6 98.3998 36.8 98.3998 37.1H96.5999Z" fill="#2B2A2A"/>
<path d="M104.5 36.4C104.4 36.3 104.3 36.1 104.1 36.1C103.9 36 103.8 36 103.6 36C103.3 36 103.1 36.1 102.9 36.2C102.7 36.3 102.5 36.5 102.4 36.7C102.3 36.9 102.2 37.2 102.2 37.4C102.2 37.6 102.3 37.9 102.4 38.1C102.5 38.3 102.7 38.5 102.9 38.6C103.1 38.7 103.3 38.8 103.6 38.8C103.8 38.8 104 38.8 104.2 38.7C104.4 38.6 104.5 38.5 104.6 38.4V38.8H105.1V36H104.6L104.5 36.4ZM104.3 37.9C104.2 38 104.1 38.2 104 38.2C103.9 38.2 103.7 38.3 103.5 38.3C103.3 38.3 103.2 38.3 103 38.2C102.9 38.1 102.8 38 102.7 37.9C102.6 37.8 102.6 37.6 102.6 37.4C102.6 37.2 102.6 37 102.7 36.9C102.8 36.8 102.9 36.6 103 36.6C103.1 36.5 103.3 36.5 103.5 36.5C103.7 36.5 103.8 36.5 104 36.6C104.1 36.7 104.3 36.8 104.3 36.9C104.4 37 104.4 37.2 104.4 37.4C104.4 37.6 104.4 37.7 104.3 37.9Z" fill="#2B2A2A"/>
<path d="M107.4 36C107.2 36 107 36 106.8 36.1C106.6 36.2 106.5 36.3 106.4 36.4V36H105.9V38.8H106.4V37.4C106.4 37.1 106.5 36.9 106.6 36.7C106.8 36.5 107 36.5 107.2 36.5C107.4 36.5 107.6 36.6 107.7 36.7C107.8 36.8 107.9 37 107.9 37.3V38.8H108.4V37.2C108.4 36.8 108.3 36.5 108.1 36.3C108 36.1 107.7 36 107.4 36Z" fill="#2B2A2A"/>
<path d="M111.6 36.5C111.5 36.4 111.3 36.2 111.2 36.2C111 36.1 110.8 36.1 110.6 36.1C110.3 36.1 110.1 36.2 109.9 36.3C109.7 36.4 109.5 36.6 109.4 36.8C109.3 37 109.2 37.2 109.2 37.5C109.2 37.8 109.3 38 109.4 38.2C109.5 38.4 109.7 38.6 109.9 38.7C110.1 38.8 110.3 38.9 110.6 38.9C110.8 38.9 111 38.9 111.2 38.8C111.4 38.7 111.5 38.6 111.6 38.5V38.7C111.6 39 111.5 39.2 111.4 39.4C111.2 39.6 111 39.6 110.7 39.6C110.5 39.6 110.3 39.6 110.1 39.5C109.9 39.4 109.8 39.3 109.6 39.2L109.4 39.6C109.5 39.7 109.7 39.8 110 39.9C110.2 40 110.5 40 110.7 40C111.2 40 111.5 39.9 111.8 39.7C112.1 39.5 112.2 39.1 112.2 38.6V36.2H111.7L111.6 36.5ZM111.5 37.8C111.4 37.9 111.3 38 111.2 38.1C111.1 38.2 110.9 38.2 110.7 38.2C110.5 38.2 110.4 38.2 110.2 38.1C110.1 38 109.9 37.9 109.9 37.8C109.8 37.7 109.8 37.5 109.8 37.3C109.8 37 109.9 36.8 110.1 36.7C110.3 36.6 110.5 36.5 110.8 36.5C111.1 36.5 111.3 36.6 111.5 36.8C111.7 37 111.8 37.2 111.8 37.4C111.6 37.6 111.6 37.7 111.5 37.8Z" fill="#2B2A2A"/>
<path d="M113.5 36.6V36.1H113V38.9H113.5V37.5C113.5 37.2 113.6 37 113.7 36.8C113.9 36.6 114.1 36.6 114.3 36.6H114.4V36.1C114.2 36.1 114 36.1 113.8 36.2C113.8 36.3 113.6 36.4 113.5 36.6Z" fill="#2B2A2A"/>
<path d="M117 36.3C116.8 36.2 116.5 36.1 116.3 36.1C116 36.1 115.8 36.2 115.6 36.3C115.4 36.4 115.2 36.6 115.1 36.8C115 37 114.9 37.3 114.9 37.5C114.9 37.8 115 38 115.1 38.2C115.2 38.4 115.4 38.6 115.6 38.7C115.8 38.8 116.1 38.9 116.3 38.9C116.6 38.9 116.8 38.8 117 38.7C117.2 38.6 117.4 38.4 117.5 38.2C117.6 38 117.7 37.7 117.7 37.5C117.7 37.2 117.6 37 117.5 36.8C117.4 36.6 117.3 36.4 117 36.3ZM117.1 38C117 38.1 116.9 38.3 116.8 38.3C116.7 38.4 116.5 38.4 116.3 38.4C116.1 38.4 116 38.4 115.8 38.3C115.7 38.2 115.6 38.1 115.5 38C115.4 37.9 115.4 37.7 115.4 37.5C115.4 37.3 115.4 37.1 115.5 37C115.6 36.9 115.7 36.7 115.8 36.7C115.9 36.6 116.1 36.6 116.3 36.6C116.5 36.6 116.6 36.6 116.8 36.7C116.9 36.8 117 36.9 117.1 37C117.2 37.1 117.2 37.3 117.2 37.5C117.2 37.7 117.2 37.9 117.1 38Z" fill="#2B2A2A"/>
<path d="M122 39.4C121.9 39.4 121.9 39.4 121.8 39.5C121.8 39.5 121.7 39.6 121.7 39.7C121.7 39.8 121.7 39.8 121.7 39.8L121.8 39.9L121.7 40.3H122L122.2 39.9C122.2 39.8 122.3 39.7 122.3 39.6C122.3 39.5 122.3 39.5 122.2 39.4C122.1 39.3 122.1 39.4 122 39.4Z" fill="#2B2A2A"/>
<path d="M122.7 37.5C122.6 37.5 122.4 37.4 122.2 37.4C122 37.4 121.9 37.3 121.8 37.3C121.7 37.3 121.6 37.2 121.6 37.2C121.6 37.2 121.5 37.1 121.5 37C121.5 36.9 121.6 36.8 121.7 36.7C121.8 36.6 122 36.6 122.2 36.6C122.5 36.6 122.8 36.7 123 36.8L123.2 36.4C123.1 36.3 122.9 36.3 122.7 36.2C122.5 36.2 122.3 36.1 122.2 36.1C121.9 36.1 121.6 36.2 121.4 36.3C121.2 36.4 121.1 36.6 121.1 36.9C121.1 37.1 121.1 37.2 121.2 37.4C121.3 37.5 121.4 37.6 121.6 37.6C121.7 37.6 121.9 37.7 122.1 37.7C122.3 37.7 122.4 37.8 122.5 37.8C122.6 37.8 122.7 37.9 122.7 37.9C122.8 37.9 122.8 38 122.8 38.1C122.8 38.3 122.6 38.5 122.1 38.5C121.9 38.5 121.7 38.5 121.6 38.4C121.4 38.3 121.3 38.3 121.2 38.2L121 38.6C121.1 38.7 121.3 38.8 121.5 38.8C121.7 38.9 121.9 38.9 122.1 38.9C122.5 38.9 122.8 38.8 123 38.7C123.2 38.6 123.3 38.4 123.3 38.1C123.3 37.9 123.3 37.8 123.2 37.7C122.9 37.6 122.8 37.5 122.7 37.5Z" fill="#2B2A2A"/>
<path d="M123.823 36.1108L123.799 38.9108L124.299 38.9151L124.323 36.1151L123.823 36.1108Z" fill="#2B2A2A"/>
<path d="M124.1 35C124 35 123.9 35 123.9 35.1C123.8 35.2 123.8 35.2 123.8 35.3C123.8 35.4 123.8 35.5 123.9 35.5C124 35.6 124 35.6 124.1 35.6C124.2 35.6 124.3 35.6 124.3 35.5C124.4 35.4 124.4 35.4 124.4 35.3C124.4 35.2 124.4 35.1 124.3 35.1C124.3 35 124.2 35 124.1 35Z" fill="#2B2A2A"/>
<path d="M128.8 36.8C128.9 36.7 129.1 36.7 129.3 36.7C129.5 36.7 129.6 36.7 129.7 36.8C129.8 36.9 129.9 37 130 37.1L130.4 36.9C130.3 36.7 130.1 36.6 129.9 36.5C129.7 36.4 129.5 36.3 129.2 36.3C128.9 36.3 128.7 36.4 128.4 36.5C128.2 36.6 128 36.8 127.9 37C127.8 37.2 127.7 37.5 127.7 37.7C127.7 38 127.8 38.2 127.9 38.4C128 38.6 128.2 38.8 128.4 38.9C128.6 39 128.9 39.1 129.1 39.1C129.3 39.1 129.6 39.1 129.8 39C130 38.9 130.1 38.8 130.3 38.6L129.9 38.4C129.8 38.5 129.7 38.6 129.6 38.7C129.5 38.8 129.3 38.8 129.2 38.8C129 38.8 128.9 38.8 128.7 38.7C128.6 38.6 128.4 38.5 128.4 38.4C128.3 38.3 128.3 38.1 128.3 37.9C128.3 37.7 128.3 37.5 128.4 37.4C128.5 36.9 128.6 36.8 128.8 36.8Z" fill="#2B2A2A"/>
<path d="M133.1 37.7C133.1 38 133 38.2 132.9 38.4C132.7 38.6 132.5 38.6 132.3 38.6C132.1 38.6 131.9 38.5 131.8 38.4C131.7 38.3 131.6 38.1 131.6 37.8V36.3H131.1V37.9C131.1 38.3 131.2 38.6 131.4 38.8C131.6 39 131.9 39.1 132.3 39.1C132.5 39.1 132.7 39.1 132.8 39C133 38.9 133.1 38.8 133.2 38.7V39.1H133.7V36.3H133.2L133.1 37.7Z" fill="#2B2A2A"/>
<path d="M139.4 36.7C139.3 36.6 139.2 36.4 139 36.4C138.8 36.3 138.7 36.3 138.5 36.3C138.2 36.3 138 36.4 137.8 36.5C137.6 36.6 137.4 36.8 137.3 37C137.2 37.2 137.1 37.5 137.1 37.7C137.1 38 137.2 38.2 137.3 38.4C137.4 38.6 137.6 38.8 137.8 38.9C138 39 138.2 39.1 138.5 39.1C138.7 39.1 138.9 39.1 139.1 39C139.3 38.9 139.4 38.8 139.5 38.7V39.1H140V36.3H139.5L139.4 36.7ZM139.3 38.2C139.2 38.3 139.1 38.5 139 38.5C138.9 38.6 138.7 38.6 138.5 38.6C138.3 38.6 138.2 38.6 138 38.5C137.9 38.4 137.8 38.3 137.7 38.2C137.6 38.1 137.6 37.9 137.6 37.7C137.6 37.5 137.6 37.3 137.7 37.2C137.8 37.1 137.9 36.9 138 36.9C138.1 36.8 138.3 36.8 138.5 36.8C138.7 36.8 138.8 36.8 139 36.9C139.1 37 139.3 37.1 139.3 37.2C139.4 37.3 139.4 37.5 139.4 37.7C139.4 37.9 139.4 38.1 139.3 38.2Z" fill="#2B2A2A"/>
<path d="M144.3 36.3C144.1 36.3 143.9 36.3 143.7 36.4C143.5 36.5 143.4 36.6 143.3 36.8C143.2 36.6 143.1 36.5 142.9 36.4C142.7 36.3 142.5 36.3 142.3 36.3C142.1 36.3 141.9 36.3 141.7 36.4C141.5 36.5 141.4 36.6 141.3 36.7V36.3H140.8V39.1H141.3V37.7C141.3 37.4 141.4 37.2 141.5 37C141.7 36.8 141.9 36.8 142.1 36.8C142.3 36.8 142.5 36.9 142.6 37C142.7 37.1 142.8 37.3 142.8 37.6V39.1H143.3V37.7C143.3 37.4 143.4 37.2 143.5 37C143.7 36.8 143.9 36.8 144.1 36.8C144.3 36.8 144.5 36.9 144.6 37C144.7 37.1 144.8 37.3 144.8 37.6V39.1H145.3V37.5C145.3 37.1 145.2 36.8 145 36.6C145 36.4 144.7 36.3 144.3 36.3Z" fill="#2B2A2A"/>
<path d="M148.5 36.8C148.4 36.7 148.3 36.5 148.1 36.5C147.9 36.4 147.8 36.4 147.6 36.4C147.3 36.4 147.1 36.5 146.9 36.6C146.7 36.7 146.5 36.9 146.4 37.1C146.3 37.3 146.2 37.6 146.2 37.8C146.2 38 146.3 38.3 146.4 38.5C146.5 38.7 146.7 38.9 146.9 39C147.1 39.1 147.3 39.2 147.6 39.2C147.8 39.2 148 39.2 148.2 39.1C148.4 39 148.5 38.9 148.6 38.8V39.2H149.1V36.4H148.6L148.5 36.8ZM148.4 38.3C148.3 38.4 148.2 38.6 148.1 38.6C148 38.7 147.8 38.7 147.6 38.7C147.4 38.7 147.3 38.7 147.1 38.6C146.9 38.5 146.9 38.4 146.8 38.3C146.7 38.2 146.7 38 146.7 37.8C146.7 37.6 146.7 37.4 146.8 37.3C146.9 37.2 147 37 147.1 37C147.2 36.9 147.4 36.9 147.6 36.9C147.8 36.9 147.9 36.9 148.1 37C148.2 37.1 148.4 37.2 148.4 37.3C148.5 37.4 148.5 37.6 148.5 37.8C148.5 38 148.4 38.1 148.4 38.3Z" fill="#2B2A2A"/>
<path d="M148.3 35.8C148.5 35.7 148.5 35.5 148.6 35.3H148.3C148.3 35.4 148.2 35.5 148.1 35.6C148 35.7 147.9 35.7 147.7 35.7C147.6 35.7 147.4 35.7 147.3 35.6C147.2 35.5 147.2 35.4 147.2 35.3H146.9C146.9 35.5 147 35.7 147.1 35.8C147.3 35.9 147.5 36 147.7 36C147.9 36 148.1 36 148.3 35.8Z" fill="#2B2A2A"/>
<path d="M151.4 36.4C151.2 36.4 151 36.4 150.8 36.5C150.6 36.6 150.5 36.7 150.4 36.8V36.4H149.9V39.2H150.4V37.8C150.4 37.5 150.5 37.3 150.6 37.1C150.8 36.9 151 36.9 151.2 36.9C151.4 36.9 151.6 37 151.7 37.1C151.8 37.2 151.9 37.4 151.9 37.7V39.2H152.4V37.6C152.4 37.2 152.3 36.9 152.1 36.7C152 36.5 151.8 36.4 151.4 36.4Z" fill="#2B2A2A"/>
<path d="M155.5 37.9C155.5 38.2 155.4 38.4 155.3 38.6C155.1 38.8 154.9 38.8 154.7 38.8C154.5 38.8 154.3 38.7 154.2 38.6C154.1 38.5 154 38.3 154 38V36.5H153.5V38.1C153.5 38.5 153.6 38.8 153.8 39C154 39.2 154.3 39.3 154.7 39.3C154.9 39.3 155.1 39.3 155.2 39.2C155.4 39.1 155.5 39 155.6 38.9V39.3H156.1V36.5H155.6L155.5 37.9Z" fill="#2B2A2A"/>
<path d="M158.5 36.5C158.3 36.5 158.1 36.5 157.9 36.6C157.7 36.7 157.6 36.8 157.5 36.9V36.5H157V39.3H157.5V37.9C157.5 37.6 157.6 37.4 157.7 37.2C157.9 37 158.1 37 158.3 37C158.5 37 158.7 37.1 158.8 37.2C158.9 37.3 159 37.5 159 37.8V39.3H159.5V37.7C159.5 37.3 159.4 37 159.2 36.8C159.1 36.6 158.8 36.5 158.5 36.5Z" fill="#2B2A2A"/>
<path d="M161.5 38.9C161.4 38.9 161.3 38.9 161.2 38.8C161.1 38.7 161.1 38.6 161.1 38.5V37H161.9V36.6H161.1V36H160.6V36.6H160.1V37H160.6V38.5C160.6 38.8 160.7 39 160.8 39.1C161 39.3 161.2 39.3 161.4 39.3C161.5 39.3 161.6 39.3 161.7 39.3C161.8 39.3 161.9 39.2 162 39.2L161.8 38.8C161.8 38.8 161.7 38.9 161.5 38.9Z" fill="#2B2A2A"/>
<path d="M164.7 38C164.7 38.3 164.6 38.5 164.5 38.7C164.3 38.9 164.1 38.9 163.9 38.9C163.7 38.9 163.5 38.8 163.4 38.7C163.3 38.6 163.2 38.4 163.2 38.1V36.6H162.7V38.2C162.7 38.6 162.8 38.9 163 39.1C163.2 39.3 163.5 39.4 163.9 39.4C164.1 39.4 164.3 39.4 164.4 39.3C164.6 39.2 164.7 39.1 164.8 39V39.4H165.3V36.6H164.8L164.7 38Z" fill="#2B2A2A"/>
<path d="M166.19 35.4029L166.156 39.3029L166.656 39.3072L166.69 35.4072L166.19 35.4029Z" fill="#2B2A2A"/>
<path d="M11.3999 7.70001C5.5999 7.70001 0.899902 12.4 0.899902 18.2C0.899902 24 5.5999 28.7 11.3999 28.7C14.0999 28.7 16.5999 27.6 18.4999 25.9V28.7H21.8999V18.2C21.8999 12.4 17.1999 7.70001 11.3999 7.70001ZM11.3999 25.3C7.4999 25.3 4.2999 22.1 4.2999 18.2C4.2999 14.3 7.4999 11.1 11.3999 11.1C15.2999 11.1 18.4999 14.3 18.4999 18.2C18.4999 22.1 15.2999 25.3 11.3999 25.3Z" fill="#2B2A2A"/>
<path d="M34.3999 7.70001C29.1999 7.70001 24.8999 11.9 24.8999 17.2V28.7H28.2999V17.2C28.2999 13.8 30.9999 11.1 34.3999 11.1C37.7999 11.1 40.4999 13.8 40.4999 17.2V28.7H43.8999V17.2C43.7999 11.9 39.5999 7.70001 34.3999 7.70001Z" fill="#2B2A2A"/>
<path d="M139.3 15.5V28.7H142.7V15.5C142.7 11.2 139.2 7.70001 134.9 7.70001C132.4 7.70001 130.2 8.90002 128.8 10.6C127.4 8.80002 125.2 7.70001 122.7 7.70001C118.4 7.70001 114.9 11.2 114.9 15.5V28.7H118.3V15.5C118.3 13.1 120.3 11.1 122.7 11.1C125.1 11.1 127.1 13.1 127.1 15.5V28.7H130.5V15.5C130.5 13.1 132.5 11.1 134.9 11.1C137.3 11.1 139.3 13 139.3 15.5Z" fill="#2B2A2A"/>
<path d="M93.8999 7.70001C88.0999 7.70001 83.3999 12.4 83.3999 18.2C83.3999 24 88.0999 28.7 93.8999 28.7C99.6999 28.7 104.4 24 104.4 18.2C104.4 12.4 99.6999 7.70001 93.8999 7.70001ZM93.8999 25.3C89.9999 25.3 86.7999 22.1 86.7999 18.2C86.7999 14.3 89.9999 11.1 93.8999 11.1C97.7999 11.1 101 14.3 101 18.2C101 22.1 97.7999 25.3 93.8999 25.3Z" fill="#2B2A2A"/>
<path d="M111.3 26.4C111.3 25.2 110.3 24.1 109 24.1C107.8 24.1 106.7 25.1 106.7 26.4C106.7 27.6 107.7 28.7 109 28.7C110.3 28.6 111.3 27.6 111.3 26.4Z" fill="#2B2A2A"/>
<path d="M82.0999 11.4V7.90001C81.4999 7.80001 80.7999 7.70001 80.0999 7.70001C74.8999 7.70001 70.5999 11.9 70.5999 17.2V28.7H73.9998V17.2C73.9998 13.8 76.6999 11.1 80.0999 11.1C80.7999 11.1 81.4999 11.2 82.0999 11.4Z" fill="#2B2A2A"/>
<path d="M163.3 28.6H166.7V0H163.3V10.5C161.4 8.8 158.9 7.7 156.2 7.7C150.4 7.7 145.7 12.4 145.7 18.2C145.7 24 150.4 28.7 156.2 28.7C158.9 28.7 161.4 27.6 163.3 25.9V28.6ZM156.2 25.3C152.3 25.3 149.1 22.1 149.1 18.2C149.1 14.3 152.3 11.1 156.2 11.1C160.1 11.1 163.3 14.3 163.3 18.2C163.3 22.1 160.1 25.3 156.2 25.3Z" fill="#2B2A2A"/>
</svg>
