<svg width="32" height="32" viewBox="0 0 32 32" fill="none" xmlns="http://www.w3.org/2000/svg">
<path d="M23.5555 4.28231C21.6551 2.38233 19.1182 1.25367 16.4345 1.11416C13.7508 0.974641 11.1106 1.83416 9.02335 3.52682C6.93612 5.21949 5.54987 7.62531 5.13216 10.28C4.71444 12.9346 5.29486 15.6499 6.76139 17.9017L14.3181 29.5025C14.4862 29.7607 14.7162 29.9728 14.987 30.1196C15.2579 30.2664 15.5611 30.3433 15.8692 30.3433C16.1773 30.3433 16.4805 30.2664 16.7513 30.1196C17.0222 29.9728 17.2521 29.7607 17.4203 29.5025L24.9772 17.9017C26.338 15.8128 26.9393 13.3196 26.6805 10.84C26.4217 8.36043 25.3184 6.04517 23.5555 4.28231Z" fill="#EC2027"/>
<path d="M15.8696 7.97449C15.0785 7.97449 14.3051 8.20908 13.6473 8.64861C12.9896 9.08813 12.4769 9.71285 12.1741 10.4438C11.8714 11.1747 11.7921 11.9789 11.9465 12.7548C12.1008 13.5308 12.4818 14.2435 13.0412 14.8029C13.6006 15.3623 14.3133 15.7433 15.0893 15.8976C15.8652 16.052 16.6695 15.9727 17.4004 15.67C18.1313 15.3672 18.756 14.8546 19.1955 14.1968C19.635 13.539 19.8696 12.7656 19.8696 11.9745C19.8684 10.914 19.4466 9.89728 18.6967 9.14739C17.9468 8.39751 16.9301 7.97569 15.8696 7.97449ZM15.8696 13.9745C15.4741 13.9745 15.0874 13.8572 14.7585 13.6374C14.4296 13.4177 14.1732 13.1053 14.0219 12.7398C13.8705 12.3744 13.8309 11.9723 13.9081 11.5843C13.9852 11.1963 14.1757 10.84 14.4554 10.5603C14.7351 10.2806 15.0915 10.0901 15.4794 10.0129C15.8674 9.93574 16.2695 9.97535 16.635 10.1267C17.0004 10.2781 17.3128 10.5344 17.5326 10.8633C17.7523 11.1922 17.8696 11.5789 17.8696 11.9745C17.869 12.5047 17.6581 13.0131 17.2832 13.388C16.9082 13.763 16.3999 13.9739 15.8696 13.9745Z" fill="white"/>
</svg>
