<svg width="84" height="21" viewBox="0 0 84 21" fill="none" xmlns="http://www.w3.org/2000/svg">
<path d="M9.25663 7.24323C8.18177 7.24323 7.24327 7.63628 6.56146 8.30205C5.83954 7.63628 4.90104 7.24323 3.86629 7.24323C3.22458 7.24323 2.61496 7.39564 2.06951 7.67638C1.89304 7.40366 1.5401 7.20312 1.17111 7.20312C0.54545 7.20312 0 7.74858 0 8.3983V15.8662C0 16.4918 0.54545 17.0212 1.17111 17.0212C1.83689 17.0212 2.34223 16.4918 2.34223 15.8662V10.9411C2.34223 10.179 3.02405 9.59348 3.86629 9.59348C4.70853 9.59348 5.39034 10.179 5.39034 10.9411V15.81C5.39034 16.4758 5.89569 16.9811 6.56146 16.9811C7.18712 16.9811 7.71653 16.4758 7.71653 15.81V10.9411C7.71653 10.179 8.39834 9.59348 9.26465 9.59348C10.0668 9.59348 10.7486 10.179 10.7486 10.9411V15.81C10.7486 16.4758 11.294 16.9811 11.9438 16.9811C12.5855 16.9811 13.0988 16.4758 13.0988 15.81V10.9411C13.0908 8.90365 11.3502 7.24323 9.25663 7.24323Z" fill="white"/>
<path d="M16.1786 7.02671C15.4968 7.02671 14.9434 7.55612 14.9434 8.22189V15.762C14.9434 16.4277 15.4888 16.9732 16.1786 16.9732C16.8204 16.9732 17.3738 16.4277 17.3738 15.762V8.21387C17.3658 7.55612 16.8204 7.02671 16.1786 7.02671ZM16.1786 3C15.4968 3 14.9434 3.52941 14.9434 4.21122V4.30748C14.9434 4.94919 15.4888 5.50266 16.1786 5.50266C16.8204 5.50266 17.3738 4.95721 17.3738 4.30748V4.21122C17.3658 3.52139 16.8204 3 16.1786 3Z" fill="white"/>
<path d="M23.783 7.21955C22.9007 7.21955 22.0985 7.47623 21.4007 7.92543C21.2483 7.46019 20.8151 7.12329 20.3098 7.12329C19.6681 7.12329 19.1387 7.6527 19.1387 8.29441V15.7623C19.1387 16.404 19.6681 16.9334 20.3098 16.9334C20.9515 16.9334 21.4809 16.404 21.4809 15.7623V12.4414C21.4809 11.0939 22.259 9.5698 23.791 9.5698C25.0183 9.5698 26.037 10.6848 26.037 12.0725V15.7623C26.037 16.404 26.5424 16.9334 27.2081 16.9334C27.8498 16.9334 28.3632 16.404 28.3632 15.7623V12.0725C28.3552 9.39333 26.3017 7.21955 23.783 7.21955Z" fill="white"/>
<path d="M31.2517 7.02671C30.5699 7.02671 30.0244 7.55612 30.0244 8.22189V15.762C30.0244 16.4277 30.5699 16.9732 31.2517 16.9732C31.8934 16.9732 32.4469 16.4277 32.4469 15.762V8.21387C32.4388 7.55612 31.8934 7.02671 31.2517 7.02671ZM31.2517 3C30.5699 3 30.0244 3.52941 30.0244 4.21122V4.30748C30.0244 4.94919 30.5699 5.50266 31.2517 5.50266C31.8934 5.50266 32.4469 4.95721 32.4469 4.30748V4.21122C32.4388 3.52139 31.8934 3 31.2517 3Z" fill="white"/>
<path d="M53.3445 9.53735C51.9568 9.53735 50.8418 10.6523 50.8418 12.04C50.8418 13.4277 51.9568 14.5427 53.3445 14.5427C54.7321 14.5427 55.8471 13.4277 55.8471 12.04C55.8471 10.6523 54.7321 9.53735 53.3445 9.53735Z" fill="#9DAE1F"/>
<path d="M74.9857 9.59375C74.0873 9.59375 73.3092 10.0429 72.8359 10.7649H76.983C76.5899 10.0269 75.868 9.59375 74.9857 9.59375Z" fill="#9DAE1F"/>
<path d="M61.4219 12.0404C61.4219 13.4682 62.5769 14.6233 64.0047 14.6233C65.4325 14.6233 66.5876 13.4682 66.5876 12.0404C66.5876 10.6126 65.4325 9.45752 64.0047 9.45752C62.5769 9.45752 61.4219 10.6126 61.4219 12.0404Z" fill="#9DAE1F"/>
<path d="M74.6252 3.00802H69.1225V4.21122V15.77C69.1225 16.4117 68.5931 16.9411 67.9274 16.9411C67.398 16.9411 66.9488 16.6122 66.7964 16.1229C66.0183 16.6684 65.0397 16.9812 64.0049 16.9812C61.2857 16.9812 59.0558 14.7753 59.0558 12.032C59.0558 9.31279 61.2857 7.08286 64.0049 7.08286C65.0236 7.08286 65.9621 7.39569 66.7643 7.90104V4.2032V3H43.4462C38.6735 3 34.7351 6.77003 34.4623 11.4786C34.4543 11.655 34.4463 11.8235 34.4463 11.9999C34.4463 12.1764 34.4543 12.3529 34.4623 12.5213C34.7351 17.2619 38.6735 20.9999 43.4462 20.9999H74.6252C79.5744 20.9999 83.6251 16.9812 83.6652 12.032C83.6251 7.0588 79.5744 3.00802 74.6252 3.00802ZM40.8393 12.0802C40.8393 12.7459 41.1361 13.4117 41.6174 13.8609C42.1067 14.3502 42.7484 14.6069 43.4141 14.5828C44.0559 14.5828 44.6655 14.3261 45.1307 13.901C45.5799 13.4518 46.3419 13.4919 46.7751 13.9572C47.2243 14.4304 47.1842 15.1684 46.7189 15.6176C45.8366 16.4357 44.6895 16.909 43.4703 16.925H43.3901C42.0986 16.925 40.9035 16.4357 39.989 15.5534C39.0505 14.6309 38.5211 13.4197 38.481 12.1122C38.465 10.8208 38.9302 9.56948 39.8687 8.63098C40.7671 7.69248 41.9783 7.16308 43.2858 7.12297C44.5933 7.10693 45.8286 7.58821 46.7671 8.51066C47.2323 8.94381 47.2564 9.70584 46.8072 10.155C46.358 10.6203 45.612 10.6443 45.1468 10.1951C44.6575 9.7299 44.0157 9.47322 43.3259 9.47322C42.6441 9.47322 42.0184 9.77001 41.5291 10.2513C41.088 10.7486 40.8152 11.3903 40.8393 12.0802ZM53.3446 16.9411C50.6494 16.9411 48.4355 14.7513 48.4355 12.032C48.4355 9.33686 50.6414 7.12297 53.3446 7.12297C56.0397 7.12297 58.2536 9.32884 58.2697 12.0481C58.2536 14.7513 56.0478 16.9411 53.3446 16.9411ZM79.6385 11.4705C79.6385 11.647 79.5583 11.8395 79.4781 12.0401C79.3257 12.409 78.9888 12.7459 78.5236 12.7459H72.4995C72.7723 13.8609 73.7669 14.7192 74.9781 14.7192C75.6038 14.7192 76.5182 14.4625 77.0316 13.9732C77.4968 13.524 78.2428 13.524 78.692 13.9892C79.1572 14.4384 79.1412 15.2005 78.676 15.6497C77.6011 16.6844 76.0931 17.0373 74.9781 17.0373C72.2589 17.0373 70.0931 14.8475 70.0931 12.1283C70.0931 9.44916 72.2669 7.21922 74.9781 7.21922C75.2749 7.21922 75.5476 7.23527 75.8364 7.29944C77.1679 7.55612 78.299 8.3743 79.0048 9.54541C79.3257 10.0989 79.6786 10.8208 79.6385 11.4705Z" fill="#9DAE1F"/>
</svg>
