
<svg xmlns="http://www.w3.org/2000/svg">
  <symbol id="arrow-down" viewBox="0 0 24 24"><path d="M12 16.8c-.7 0-1.4-.3-2-.8L3.7 9.5a.8.8 0 0 1 0-1c.2-.4.7-.4 1 0l6.5 6.4c.5.5 1.3.5 1.8 0l6.5-6.5c.3-.3.8-.3 1 0 .3.3.3.8 0 1L14 16c-.5.5-1.2.8-1.9.8Z"/></symbol>
  <symbol id="arrow-top" viewBox="0 0 24 24"><path d="M20 15.8c-.3 0-.5 0-.6-.2L12.9 9c-.5-.5-1.3-.5-1.8 0l-6.5 6.5c-.3.3-.8.3-1 0a.8.8 0 0 1 0-1L10 8c1-1 2.8-1 3.8 0l6.5 6.5c.3.3.3.8 0 1-.1.2-.3.3-.5.3Z"/></symbol>
  <symbol id="arrow-left" viewBox="0 0 24 24"><path d="M15 20.7c-.2 0-.4-.1-.5-.3L7.9 14c-1-1-1-2.8 0-3.8l6.6-6.5c.3-.3.7-.3 1 0 .3.2.3.7 0 1L9 11.1c-.5.5-.5 1.3 0 1.8l6.5 6.5c.3.3.3.8 0 1-.1.2-.3.3-.5.3Z"/></symbol>
  <symbol id="arrow-right" viewBox="0 0 24 24"><path d="M9 20.7c-.3 0-.5-.1-.6-.3a.8.8 0 0 1 0-1l6.5-6.5c.5-.5.5-1.3 0-1.8L8.4 4.6a.8.8 0 0 1 0-1c.3-.3.8-.3 1 0L16 10a2.7 2.7 0 0 1 0 3.8l-6.6 6.5c-.1.2-.3.3-.5.3Z"/></symbol>
  <symbol id="prev" viewBox="0 0 24 24"><path d="M9.6 18.8c-.2 0-.4 0-.6-.2l-6-6a.8.8 0 0 1 0-1.1l6-6.1c.3-.3.8-.3 1.1 0 .3.3.3.8 0 1L4.6 12l5.5 5.5c.3.3.3.8 0 1.1l-.5.2Z"/><path d="M20.5 12.8H3.7a.8.8 0 0 1-.8-.8c0-.4.4-.8.8-.8h16.8c.4 0 .7.4.7.8s-.3.8-.7.8Z"/></symbol>
  <symbol id="next" viewBox="0 0 24 24"><path d="M14.4 18.8c-.2 0-.3 0-.5-.2a.8.8 0 0 1 0-1l5.5-5.6L14 6.5a.8.8 0 0 1 0-1.1c.3-.3.8-.3 1 0l6.1 6c.3.4.3.8 0 1.1l-6 6.1-.6.2Z"/><path d="M20.3 12.8H3.5a.8.8 0 0 1-.8-.8c0-.4.4-.8.8-.8h16.8c.4 0 .8.4.8.8s-.4.8-.8.8Z"/></symbol>
  <symbol id="user" viewBox="0 0 24 24"><path d="M15 22.8H9c-1.3 0-2.4-.2-3.3-.5a.8.8 0 0 1-.6-.7c.3-3 3.3-5.4 6.9-5.4 3.6 0 6.6 2.4 6.9 5.4 0 .3-.2.6-.5.7-1 .3-2 .4-3.4.4ZM6.7 21l2.3.1h6l2.3-.1c-.5-2-2.7-3.4-5.3-3.4-2.6 0-4.7 1.4-5.3 3.4Z"/><path d="M3 3c1.4-1.2 3.4-1.8 6-1.8h6c2.6 0 4.6.6 6 1.9 1.2 1.3 1.8 3.3 1.8 5.9v6c0 2-.3 3.6-1 4.8a5.4 5.4 0 0 1-3.5 2.5.7.7 0 0 1-1-.6c0-2.1-2.3-4-5.3-4s-5.2 1.9-5.4 4a.8.8 0 0 1-1 .6 5.4 5.4 0 0 1-3.3-2.5c-.8-1.2-1-2.8-1-4.8V9c0-2.6.5-4.6 1.8-6Zm1.2 1.2C3.2 5 2.7 6.6 2.7 9v6c0 1.8.3 3.1.9 4 .4.7 1 1.3 1.7 1.6.7-2.6 3.6-4.4 6.7-4.4s6 1.8 6.7 4.4c.8-.3 1.3-.9 1.7-1.5.6-1 .9-2.3.9-4.1V9c0-2.4-.5-4-1.5-4.8-.9-1-2.4-1.5-4.8-1.5H9c-2.4 0-4 .5-4.8 1.5ZM12 7.7a2.8 2.8 0 1 0 0 5.7 2.8 2.8 0 0 0 0-5.7Zm-4.3 2.9a4.3 4.3 0 1 1 8.6 0 4.3 4.3 0 0 1-8.6 0Z"/><path d="M12 15a4.3 4.3 0 1 1 0-8.8 4.3 4.3 0 0 1 0 8.7Zm0-7.3a2.8 2.8 0 1 0 0 5.7 2.8 2.8 0 0 0 0-5.7Z"/></symbol>
  <symbol id="facebook" viewBox="0 0 24 24"><path d="M14.8 22.8h-4.6v-7.3h-.9a1 1 0 0 1-1-1v-2c0-.5.4-1 1-1h1V9c0-2 1.6-3.8 3.7-3.8h2.7c.6 0 1 .5 1 1.1v2.4c0 .6-.4 1-1 1h-2v1.8h2a1 1 0 0 1 1 1.3l-.4 1.8a1 1 0 0 1-1 .9h-1.6v7.3Zm-3-1.6h1.4V14H16l.2-1h-2.8V9.3c0-.6.4-1 1-1h2V6.7H14c-1.2 0-2.3 1-2.3 2.3v4h-2v1h2v7.3Z"/><path d="M15 22.8H9c-5.4 0-7.8-2.4-7.8-7.8V9c0-5.4 2.4-7.8 7.8-7.8h6c5.4 0 7.8 2.4 7.8 7.8v6c0 5.4-2.4 7.8-7.8 7.8Zm-6-20C4.4 2.8 2.7 4.3 2.7 9v6c0 4.6 1.7 6.3 6.3 6.3h6c4.6 0 6.3-1.7 6.3-6.3V9c0-4.6-1.7-6.3-6.3-6.3H9Z"/></symbol>
  <symbol id="instagram" viewBox="0 0 24 24"><path d="M15 22.8H9c-5.4 0-7.8-2.4-7.8-7.8V9c0-5.4 2.4-7.8 7.8-7.8h6c5.4 0 7.8 2.4 7.8 7.8v6c0 5.4-2.4 7.8-7.8 7.8Zm-6-20C4.4 2.8 2.7 4.3 2.7 9v6c0 4.6 1.7 6.3 6.3 6.3h6c4.6 0 6.3-1.7 6.3-6.3V9c0-4.6-1.7-6.3-6.3-6.3H9Z"/><path d="M12 18a6 6 0 1 1 0-12 6 6 0 0 1 0 12Zm0-10a4 4 0 1 0 0 8 4 4 0 0 0 0-8ZM18 5a1 1 0 1 1-2 0 1 1 0 0 1 2 0Z"/></symbol>
  <symbol id="messenger" viewBox="0 0 24 24"><path d="M5.7 22.8a.7.7 0 0 1-.8-.8v-3.2a9.7 9.7 0 0 1-3.7-7.5c0-5.6 4.9-10 10.8-10 6 0 10.8 4.4 10.8 10 0 5.5-4.9 10-10.8 10-1 0-2-.2-2.9-.4l-3 1.8h-.4Zm6.3-20c-5.1 0-9.3 3.8-9.3 8.5 0 2.5 1.3 5 3.4 6.5l.3.6v2.3l2.3-1.2c.1-.1.4-.2.6-.1.8.2 1.8.4 2.7.4 5.1 0 9.3-3.9 9.3-8.5 0-4.7-4.2-8.6-9.3-8.6Z"/><path d="M7.5 14.5a.8.8 0 0 1-.6-.4.8.8 0 0 1 0-.8l3.8-4.5c.2-.3.6-.4 1-.2l1.4.8 3.2-.9c.3 0 .7 0 .8.4.2.2.2.6 0 .8l-3.8 4.5c-.2.3-.6.4-1 .2l-1.2-.7-3.4.8h-.2Zm3.7-2.4.4.1 1 .6 1.8-2.3-1.2.4h-.6l-1.1-.7-2 2.3L11 12h.2Z"/></symbol>
  <symbol id="viber" viewBox="0 0 24 24"><path d="M11.4 0c-2 0-6 .3-8.4 2.5C1.3 4.2.7 6.7.6 9.8c0 3.1-.1 9 5.5 10.6v2.4s0 1 .6 1.1c.8.3 1.3-.4 2-1.2l1.4-1.6c3.9.3 6.8-.4 7.2-.6.7-.2 5.1-.8 5.9-6.6.7-6-.4-9.8-2.4-11.6-.6-.5-3-2.3-8.4-2.3h-1Zm0 1.7h1c4.5 0 6.7 1.4 7.2 1.9 1.6 1.4 2.5 4.8 1.9 9.8-.6 5-4.2 5.2-4.9 5.5-.2 0-2.8.7-6.1.5L7.3 23l-.4.1-.1-.4v-4c-4.8-1.3-4.5-6.3-4.4-9 0-2.5.5-4.6 2-6 2-1.8 5.4-2 7-2.1Zm.4 2.6a.3.3 0 0 0-.3.3c0 .2.2.3.3.3a5.6 5.6 0 0 1 4 1.6c1.1 1 1.7 2.5 1.7 4.3 0 .2.1.3.3.3a.3.3 0 0 0 .3-.3 6.5 6.5 0 0 0-1.8-4.7 6.2 6.2 0 0 0-4.5-1.8Zm-4 .7a1 1 0 0 0-.5.1c-.5.3-.9.6-1.2 1-.3.3-.4.6-.5.9v.5h.1a15.3 15.3 0 0 0 3.5 5.8h.1v.1a15.5 15.5 0 0 0 5.8 3.6h.4c.4 0 .8-.1 1.1-.4l1-1.2c.2-.4.1-.8-.2-1.1-.7-.6-1.4-1.1-2.2-1.5-.5-.3-1-.2-1.2.1l-.5.6c-.2.3-.6.2-.6.2-3.1-.8-4-4-4-4s0-.3.3-.6l.5-.4c.3-.2.5-.8.2-1.3L8.4 5.3a.9.9 0 0 0-.5-.3Zm4.5.9c-.4 0-.4.6 0 .6A3.8 3.8 0 0 1 15 7.6a3.5 3.5 0 0 1 .9 2.6.3.3 0 0 0 .3.3.3.3 0 0 0 .3-.3c0-1.2-.3-2.2-1-3A4.4 4.4 0 0 0 12.3 6Zm.5 1.6c-.4 0-.4.6 0 .6 1 0 1.5.6 1.5 1.6a.3.3 0 0 0 .3.3.3.3 0 0 0 .3-.3c0-1.4-.8-2.1-2-2.2Z"/></symbol>
  <symbol id="whatsapp" viewBox="0 0 24 24"><path d="M2 22.8c-.2 0-.4-.1-.5-.3a.8.8 0 0 1-.2-.7l1.2-4.7A10.8 10.8 0 0 1 12 1.2a10.8 10.8 0 1 1-5.2 20.2l-4.6 1.3H2Zm5-3 .3.2A9.2 9.2 0 1 0 4 16.6v.6l-1 3.7 3.8-1h.1Z"/><path d="M14.7 17.8c-.6 0-1.2-.2-1.9-.5-.6-.2-1.2-.6-1.9-1A15 15 0 0 1 7.7 13a10 10 0 0 1-1-1.8 5 5 0 0 1-.5-2L6.5 8c.1-.4.4-.8.7-1.1.7-.6 1.6-.9 2.3-.5.3.1.5.3.6.5l1.2 1.7.3.5.1.5c0 .3 0 .6-.2.8l-.4.5-.1.1.2.3A15.3 15.3 0 0 0 13 13l.1-.1.5-.4c.4-.3.9-.3 1.3-.1.2 0 .4.1.5.3l1.7 1.1.5.7.2.7-.2.8-.5.7a3.1 3.1 0 0 1-2.4 1Zm-6-10-.4.2-.4.6-.2.7.3 1.3 1 1.6a13.5 13.5 0 0 0 2.8 2.9l1.6.9c.8.3 1.5.4 2 .1.2 0 .4-.2.6-.4l.2-.3V15.1l-1.6-1.2-.2-.1-.3.2-.3.3c-.3.3-.8.4-1.2.3l-.1-.1-.8-.5a19 19 0 0 1-1.6-1.7l-.6-.7-.1-.3a1.1 1.1 0 0 1 .3-1l.3-.4.2-.2-.1-.2-1.2-1.7h-.1Z"/></symbol>
  <symbol id="bank" viewBox="0 0 24 24"><path d="M22 6.3H12a.8.8 0 0 1-.8-.7c0-.4.4-.8.8-.8h10c.4 0 .8.4.8.8s-.4.7-.8.7Z"/><path d="M19.8 11.2h-5.6c-2.2 0-3-.7-3-2.9V4.2c0-2.2.8-3 3-3h5.6c2.2 0 3 .8 3 3v4.1c0 2.2-.8 3-3 3Zm-5.6-8.5c-1.3 0-1.5.2-1.5 1.5v4.1c0 1.3.2 1.5 1.5 1.5h5.6c1.3 0 1.4-.2 1.4-1.5V4.2c0-1.3 0-1.5-1.4-1.5h-5.6ZM12 17.8H2a.8.8 0 0 1-.7-.7c0-.4.3-.8.7-.8h10c.4 0 .8.4.8.8s-.4.7-.8.7Z"/><path d="M9.8 22.8H4.2c-2.2 0-3-.8-3-3v-4.1c0-2.2.8-3 3-3h5.6c2.2 0 3 .8 3 3v4.1c0 2.2-.8 3-3 3Zm-5.6-8.6c-1.3 0-1.5.2-1.5 1.5v4.1c0 1.3.2 1.5 1.5 1.5h5.6c1.3 0 1.4-.2 1.4-1.5v-4.1c0-1.3 0-1.4-1.4-1.4H4.2ZM15 22.8a.8.8 0 0 1-.6-1.2l1-1.7c.2-.4.7-.5 1-.3.4.2.5.7.3 1l-.3.5a6.3 6.3 0 0 0 4.9-6.1c0-.4.3-.8.7-.8.4 0 .8.4.8.8 0 4.3-3.5 7.8-7.8 7.8ZM2 9.7a.8.8 0 0 1-.7-.7c0-4.3 3.4-7.8 7.7-7.8a.8.8 0 0 1 .6 1.2L8.6 4c-.2.4-.7.5-1 .3a.7.7 0 0 1-.3-1l.3-.5A6.3 6.3 0 0 0 2.7 9c0 .4-.3.7-.7.7Z"/></symbol>
  <symbol id="cash" viewBox="0 0 24 24"><path d="M14.5 16.8h-5a.8.8 0 0 1-.8-.8c0-.4.4-.8.8-.8h5c.4 0 .8.4.8.8s-.4.8-.8.8ZM5.2 10.5c-.2 0-.4-.1-.5-.3a.8.8 0 0 1-.2-.8L6.4 5v-.2C8 1.4 9.9.5 13.3 1.8c.2 0 .3.2.4.4v.6l-3 6.8c0 .3-.3.5-.6.5H7c-.5 0-1 0-1.6.3h-.3Zm5.4-7.8c-1.2 0-2 .9-2.8 2.7L6.5 8.7h3L11.9 3l-1.3-.3Z"/><path d="M18.3 10.3H18c-.4-.2-.8-.2-1.2-.2h-7a.8.8 0 0 1-.6-.4.8.8 0 0 1 0-.7l2.9-6.7c.1-.4.6-.6 1-.5l.3.2 2.4 1c1.3.5 2.3 1.1 2.9 1.8a3.2 3.2 0 0 1 .5 1l.2.4c.2 1 0 2.1-.5 3.6-.1.3-.4.5-.7.5ZM11 8.6H18c.2-.8.3-1.5.1-2v-.2l-.2-.3-.2-.3c-.4-.5-1.2-1-2.3-1.5l-2-.8-2.2 5Z"/><path d="M15.9 22.7H7.3c-3.5-.2-5.5-2.2-5.8-5.8v-2.7a5.7 5.7 0 0 1 5.6-5.6H17c.6 0 1.1 0 1.6.2 2.4.7 4 3 4 5.4v2.6c-.2 3.9-2.5 6-6.6 6ZM7.1 10.1A4.1 4.1 0 0 0 3 14.2v2.6c.2 2.8 1.6 4.2 4.4 4.4H16c3.3 0 5-1.4 5-4.5v-2.5a4.2 4.2 0 0 0-4-4.1H7Z"/><path d="M2.2 15a.8.8 0 0 1-.7-.8v-3c0-3 2.2-5.8 5.3-6.4.3 0 .6 0 .7.3.2.2.3.5.1.7L6 10c0 .2-.2.3-.4.4A4.1 4.1 0 0 0 3 14.2c0 .4-.3.8-.8.8Zm3.4-8.2c-1.3.7-2.2 2-2.5 3.5.4-.5 1-.9 1.5-1.1l1-2.4ZM21.8 15a.8.8 0 0 1-.8-.8c0-1.8-1.2-3.4-3-4a.7.7 0 0 1-.4-1c.5-1.1.6-2 .4-2.6v-.2a.8.8 0 0 1 1-1 6.6 6.6 0 0 1 3.5 5.9v2.9c0 .4-.3.8-.7.8Zm-2.5-6 1.6 1.3a5 5 0 0 0-1.3-2.6l-.3 1.4Z"/></symbol>
  <symbol id="pos" viewBox="0 0 24 24"><path d="M4 16.6c-.3 0-.5 0-.6-.2a.8.8 0 0 1 0-1l12-12c.2-.3.7-.3 1 0 .3.3.3.8 0 1l-12 12c0 .2-.3.2-.5.2ZM11.1 19c-.2 0-.4 0-.5-.2a.8.8 0 0 1 0-1l1.2-1.3c.3-.2.7-.2 1 0 .3.3.3.8 0 1.1l-1.2 1.2-.5.2ZM13.8 16.3c-.2 0-.4 0-.5-.2a.8.8 0 0 1 0-1l2.4-2.4c.2-.3.7-.3 1 0 .3.3.3.7 0 1l-2.4 2.4c-.1.2-.3.2-.5.2Z"/><path d="M11.1 22.7c-1 0-2-.6-3.1-1.7l-5-5C.7 13.7.7 12.1 3 9.7l6.7-6.6c2.4-2.4 4-2.5 6.4 0L21 7.8c2.4 2.4 2.3 4 0 6.4l-6.7 6.6C13 22.1 12 22.7 11 22.7Zm1.8-20c-.5 0-1.2.5-2.1 1.4L4 10.8c-1 1-1.3 1.6-1.3 2 0 .6.4 1.2 1.3 2.2l5 4.9c.9 1 1.5 1.3 2 1.3s1.2-.4 2.1-1.3l6.7-6.7c1-1 1.4-1.6 1.4-2 0-.6-.4-1.2-1.4-2.2l-5-4.9c-.8-1-1.5-1.4-2-1.4Z"/><path d="M22 22.8H2a.8.8 0 0 1-.8-.8c0-.4.4-.8.8-.8h20c.4 0 .8.4.8.8s-.4.8-.8.8Z"/></symbol>
  <symbol id="pickingup" viewBox="0 0 24 24"><path d="M13.3 0c-.2.1-.4.3-.4.5V1A42.5 42.5 0 0 0 16 4l.5.1a6.3 6.3 0 0 1 1 .5 193.1 193.1 0 0 0 3.8.2c.2 0 .3.3.2.5 0 .2-.1.3-.2.3H20l-.1-.2-.2-.2a.5.5 0 0 0-.6.2l-.2.4v.1h-6l.2-.4.4-.4.2-.3v-.5l-.2-.2a.5.5 0 0 0-.5 0l-.3.1a4.4 4.4 0 0 0-.9 1.6v.1h-.6l-.7-.8a10 10 0 0 0-.7-.7c-.3-.2-.6 0-.8.2V5c0 .2 0 .3.4.7l.3.3H7.5c-.2 0-.4.3-.4.5v4.2c0 .2.2.4.3.5H8l.2-.3v-.9H23V12H12.5l-.4-.2h-1.9l-1-.2-.7-.1a27.2 27.2 0 0 1-1.3-.4h-.1L5.9 9.6 4.6 8.4a.5.5 0 0 0-.7.2v.6l1.3 1.5L6.6 12l.5.2 1 .4h.3a200.4 200.4 0 0 0 3.7.4v.6h-1.4v-.2l-.4-.2c-.2 0-.5.1-.6.3v.6a125.3 125.3 0 0 0 3.4 3.8v.4l-.1.1h-.3a94.2 94.2 0 0 1-3.5-3.7.5.5 0 0 0-.7.1c-.1.2-.2.4 0 .6A160.4 160.4 0 0 1 13 21c-.1.3-.4.4-.6.3l-2.3-2.5C7.7 15.9 8 16 7.7 16c-.2 0-.4.1-.5.3v.6l2.1 2.4c2.4 2.6 2.2 2.4 2.2 2.6 0 .2-.2.4-.4.3L8.8 20c-2.4-2.6-2.2-2.4-2.4-2.4H6l-.3.6c0 .3 0 .1 1.9 2.2 1 1 1.7 2 1.7 2 .2.3-.2.7-.5.5l-4.7-5.2a3.5 3.5 0 0 1 .2-4.3l.2-.4c0-.3 0-.5-.3-.7H4c-.3 0-.4 0-.7.5a4.8 4.8 0 0 0-.8 1.8l-.9-1c-1-1-1-1-1.2-1H.3c-.2.1-.3.3-.3.6 0 .2 0 .1 1.3 1.6l1.2 1.4v.1c.1.9.5 1.8 1 2.4A514.4 514.4 0 0 0 8.7 24h.4l.6-.1.6-.6.6.2h.6c.5-.2.8-.5 1-1l.2-.1.6-.1.4-.3h5l5-.1.2-.3c.1-.1.1.6.1-7.7V6.2l-.4-.3h-1.1v-.1l.1-.6v-.4c-.2-.6-.6-1-1.2-1.2a24.7 24.7 0 0 0-2.9-.2h-.2l-.8-.2a16 16 0 0 1-1.2-.4L15 1.5 13.7 0h-.4Zm9.6 8v.7H8.2V7.1h14.7v.8Zm-9.4 6v1c0 .2.2.3.3.4H17.4c.1-.1.3-.2.3-.4v-1.8H23v7.5h-8.8c0-.4-.2-.7-.3-1h-.1l.4-.3v-.7l.1-.4c0-.3 0-.8-.2-1a47.7 47.7 0 0 0-2-2.4c.3 0 .6-.2.8-.4a1.5 1.5 0 0 0 .4-1v-.3h.2v.9Zm3-.3v.5h-2v-1h2v.5Z"/></symbol>
  <symbol id="delivery" viewBox="0 0 24 24"><path d="M13 14.8h-1a.8.8 0 0 1-.8-.8c0-.4.4-.8.8-.8h1c.7 0 1.2-.5 1.2-1.2V2.7H6c-1.2 0-2.3.7-2.8 1.7-.2.4-.7.5-1 .3a.8.8 0 0 1-.4-1A4.8 4.8 0 0 1 6 1.2h9c.4 0 .7.4.7.8v10c0 1.5-1.2 2.8-2.7 2.8Z"/><path d="M19 20.8h-1a.8.8 0 0 1-.8-.8 1.3 1.3 0 0 0-2.4 0c0 .4-.4.8-.8.8h-4a.8.8 0 0 1-.8-.8 1.3 1.3 0 0 0-2.4 0c0 .4-.4.8-.8.8H5c-2 0-3.8-1.7-3.8-3.8 0-.4.4-.8.8-.8s.8.4.8.8c0 1.2 1 2.3 2.2 2.3h.3a2.8 2.8 0 0 1 5.4 0h2.7a2.8 2.8 0 0 1 5.3 0h.3c1.2 0 2.3-1 2.3-2.3v-2.3H19c-1 0-1.8-.7-1.8-1.7v-3c0-1 .8-1.8 1.8-1.8l-1-1.8c-.3-.4-.7-.7-1.2-.7h-1V12c0 1.5-1.3 2.8-2.8 2.8h-1a.8.8 0 0 1-.8-.8c0-.4.4-.8.8-.8h1c.7 0 1.2-.5 1.2-1.2V5c0-.4.4-.8.8-.8h1.8c1 0 2 .6 2.4 1.4l1.7 3c.2.3.2.6 0 .8 0 .2-.3.3-.6.3H19l-.3.3v3l.3.3h3c.4 0 .8.3.8.7v3c0 2-1.7 3.8-3.8 3.8Z"/><path d="M8 22.8a2.7 2.7 0 1 1 0-5.5 2.7 2.7 0 0 1 0 5.4Zm0-4a1.3 1.3 0 1 0 0 2.5 1.3 1.3 0 0 0 0-2.6ZM16 22.8a2.7 2.7 0 1 1 0-5.5 2.7 2.7 0 0 1 0 5.4Zm0-4a1.3 1.3 0 1 0 0 2.5 1.3 1.3 0 0 0 0-2.6ZM22 14.8h-3c-1 0-1.8-.8-1.8-1.8v-3c0-1 .8-1.8 1.8-1.8h1.3c.3 0 .5.2.6.4l1.8 3V14c0 .4-.3.8-.7.8Zm-3-5c-.1 0-.3 0-.3.2v3l.3.3h2.3v-1.1l-1.4-2.4H19ZM8 8.8H2a.8.8 0 0 1-.8-.8c0-.4.4-.8.8-.8h6c.4 0 .8.4.8.8s-.4.8-.8.8ZM6 11.8H2a.8.8 0 0 1-.8-.8c0-.4.4-.8.8-.8h4c.4 0 .8.4.8.8s-.4.8-.8.8ZM4 14.8H2a.8.8 0 0 1-.8-.8c0-.4.4-.8.8-.8h2c.4 0 .8.4.8.8s-.4.8-.8.8Z"/></symbol>
  <symbol id="address" viewBox="0 0 24 24"><path d="M12 22.8A10.8 10.8 0 1 1 22.8 12c0 .4-.4.8-.8.8a.8.8 0 0 1-.8-.8 9.3 9.3 0 1 0-9.2 9.3c.4 0 .8.3.8.7 0 .4-.4.8-.8.8Z"/><path d="M9 21.8H8a.8.8 0 0 1-.7-.8c0-.4.3-.7.7-.8A29.5 29.5 0 0 1 8 3.9a.8.8 0 0 1 0-1.5h1c.2 0 .5 0 .6.3.2.2.2.4.1.6a28 28 0 0 0 0 17.6v.6c-.2.3-.5.4-.7.4ZM16.5 12.8a.8.8 0 0 1-.8-.8c0-3-.5-6-1.4-8.8-.1-.4 0-.8.5-1 .3 0 .8.2 1 .6.9 3 1.4 6 1.4 9.2 0 .4-.3.8-.7.8Z"/><path d="M12 17.2c-2.8 0-5.6-.4-8.3-1.2a.8.8 0 0 1-1.5 0v-1c0-.2.2-.5.4-.6.2-.1.4-.2.6-.1 2.9 1 5.8 1.4 8.8 1.4.4 0 .8.4.8.8s-.4.7-.8.7ZM21 9.8h-.2a28 28 0 0 0-17.6 0c-.4 0-.8-.2-1-.6 0-.3.2-.8.6-1 6-1.9 12.5-1.9 18.4 0 .4.2.6.7.5 1 0 .4-.4.6-.7.6ZM18.2 22.1a4 4 0 1 1 0-7.9 4 4 0 0 1 0 8Zm0-6.4a2.5 2.5 0 1 0 0 5 2.5 2.5 0 0 0 0-5Z"/><path d="M22 22.8c-.2 0-.4-.1-.5-.3l-1-1a.8.8 0 0 1 0-1c.3-.3.7-.3 1 0l1 1c.3.3.3.7 0 1-.1.2-.3.3-.5.3Z"/></symbol>
  <symbol id="phone" viewBox="0 0 24 24"><path d="M17.4 22.8c-1 0-2.3-.3-3.5-.8l-3.6-2.1a31.2 31.2 0 0 1-6.2-6.2c-.9-1.2-1.6-2.4-2-3.6a9.3 9.3 0 0 1-.9-3.6c0-.7.2-1.5.5-2.2.2-.7.7-1.3 1.3-2 .8-.7 1.7-1 2.6-1 .4 0 .8 0 1.1.2.4.2.7.4 1 .8L10 5.6l.5.8.2 1c0 .3-.1.7-.3 1a4 4 0 0 1-.7.9L9 10l.9 1.2a37.6 37.6 0 0 0 3 3l1 .8.8-.7c.3-.3.6-.6.9-.7.5-.3 1.2-.4 2-.1l.8.4 3.3 2.4c.4.3.6.6.8 1l.2 1c0 .5-.1 1-.3 1.4l-.8 1.3a5.9 5.9 0 0 1-4.1 1.8ZM5.6 2.8c-.6 0-1 .2-1.6.7L3 4.9c-.1.5-.3 1-.3 1.6 0 1 .3 2 .7 3 .5 1 1 2.2 1.9 3.3a27.7 27.7 0 0 0 5.9 5.9c1 .8 2.2 1.4 3.3 1.9 1.7.7 3.3.9 4.6.3a3.7 3.7 0 0 0 2-1.8l.1-.8v-.5l-.4-.3-3.3-2.3-.5-.3c-.3-.1-.4-.2-.7 0-.2 0-.4.2-.6.4l-.7.8c-.4.4-1 .4-1.5.3l-.3-.1-1.4-1a31.4 31.4 0 0 1-4.1-4.6l-.1-.3-.1-.5c0-.3.1-.7.4-1l.7-.7.5-.6V7c0-.2-.2-.4-.3-.5L6.5 3.2a1 1 0 0 0-.4-.3l-.5-.1ZM13.9 15l-.1.7.3-.7h-.2Z"/></symbol>
  <symbol id="mail" viewBox="0 0 24 24"><path d="M17 21.3H7c-3.6 0-5.8-2.2-5.8-5.8v-7c0-3.7 2.2-5.8 5.8-5.8h10c3.6 0 5.8 2.1 5.8 5.8v7c0 3.6-2.2 5.8-5.8 5.8ZM7 4.3c-2.9 0-4.3 1.3-4.3 4.2v7c0 2.9 1.4 4.3 4.3 4.3h10c2.9 0 4.3-1.4 4.3-4.3v-7c0-2.9-1.4-4.3-4.3-4.3H7Z"/><path d="M12 12.9c-.8 0-1.7-.3-2.3-.8L6.5 9.6a.7.7 0 0 1 1-1.2l3 2.5c.8.6 2.1.6 2.9 0l3.1-2.5c.3-.3.8-.2 1 .1.3.3.3.8 0 1l-3.2 2.6c-.6.5-1.5.8-2.3.8Z"/></symbol>
  <symbol id="schedule" viewBox="0 0 24 24"><path d="M12 22.75a10.76 10.76 0 0 1 0-21.5 10.76 10.76 0 0 1 0 21.5Zm0-20a9.26 9.26 0 0 0 0 18.5 9.26 9.26 0 0 0 0-18.5Z"/><path d="M15.71 15.93a.67.67 0 0 1-.38-.11l-3.1-1.85a2.95 2.95 0 0 1-1.34-2.36v-4.1c0-.41.34-.75.75-.75s.75.34.75.75v4.1c0 .36.3.89.61 1.07l3.1 1.85c.36.21.47.67.26 1.03a.77.77 0 0 1-.65.37Z"/></symbol>
  <symbol id="minus" viewBox="0 0 24 24"><path d="M18 12.8H6a.8.8 0 0 1-.8-.8c0-.4.4-.8.8-.8h12c.4 0 .8.4.8.8s-.4.8-.8.8Z"/></symbol>
  <symbol id="plus" viewBox="0 0 24 24"><path d="M18 12.8H6a.8.8 0 0 1-.8-.8c0-.4.4-.8.8-.8h12c.4 0 .8.4.8.8s-.4.8-.8.8Z"/><path d="M12 18.8a.8.8 0 0 1-.8-.8V6c0-.4.4-.8.8-.8s.8.4.8.8v12c0 .4-.4.8-.8.8Z"/></symbol>
  <symbol id="checkbox" viewBox="0 0 24 24"><path d="M15 22.8H9c-5.4 0-7.8-2.4-7.8-7.8V9c0-5.4 2.4-7.8 7.8-7.8h6c5.4 0 7.8 2.4 7.8 7.8v6c0 5.4-2.4 7.8-7.8 7.8Zm-6-20C4.4 2.8 2.7 4.3 2.7 9v6c0 4.6 1.7 6.3 6.3 6.3h6c4.6 0 6.3-1.7 6.3-6.3V9c0-4.6-1.7-6.3-6.3-6.3H9Z"/></symbol>
  <symbol id="checkbox-checked" viewBox="0 0 24 24"><path d="M15 22.8H9c-5.4 0-7.8-2.4-7.8-7.8V9c0-5.4 2.4-7.8 7.8-7.8h6c5.4 0 7.8 2.4 7.8 7.8v6c0 5.4-2.4 7.8-7.8 7.8Zm-6-20C4.4 2.8 2.7 4.3 2.7 9v6c0 4.6 1.7 6.3 6.3 6.3h6c4.6 0 6.3-1.7 6.3-6.3V9c0-4.6-1.7-6.3-6.3-6.3H9Z"/><path d="m10.6 15.6-.6-.2-2.8-2.9a.8.8 0 0 1 0-1c.3-.3.8-.3 1 0l2.4 2.3 5.1-5.2c.3-.3.8-.3 1 0 .4.3.4.8 0 1l-5.6 5.8-.5.2Z"/></symbol>
  <symbol id="cat-home" viewBox="0 0 24 24"><path d="M2.8 1.4h1.4v2.9H1.4v8.8l-.6.6-.6.6.5.5.5.5.1-.1c.1-.1.1 0 .1 1.7v1.8l-.2.1c-.7.6-1.2 1.5-1.2 2.4 0 1.3 1 2.5 2.2 2.7h19.5a2.8 2.8 0 0 0 2.2-2.7 3 3 0 0 0-1.2-2.3l-.2-.1V17c0-1.7 0-1.8.1-1.7l.1.1.5-.5.5-.5-.6-.6-.6-.6V4.3h-8.9L12 2.6l-1.7 1.7H8.4V1.4h1.4V0h-7v1.4zM7 4.3H5.6V1.4H7v2.9zm2.9 6v5.2h4.2v-5.2l-1.4-1.4V5.3l8.5 8.4v4.6h-.1c-.5 0-1.3.3-1.7.7l-.7.9h-.3a2 2 0 0 0-2.6 1c-.2.5-.3.9-.2 1.5v.2h-1.5V17H9.9v5.6H8.3v-1.1a2 2 0 0 0-2.8-1.6l-.1.1-.1-.2c-.2-.4-.8-.9-1.2-1.1-.3-.2-.9-.3-1.1-.3h-.2v-4.6l8.5-8.4V9l-1.4 1.3zm-1-4.6-3 3-3 3v-6h6zm12.3 3v3l-3-3-3-3h6.1v3zm-8.8 1.9.3.3v3.2h-1.4v-3.2l.3-.3.4-.3.4.3zm.3 12h-1.4v-4.2h1.4v4.2zm-9.3-2.7c.3.1.6.4.7.7l.1.7v.5h.7l.7-.1c0-.2.2-.4.4-.5h.7c.2.2.3.5.3.7s-.2.5-.4.6l-2.2.1-2.2-.1c-.6-.3-.9-1-.8-1.6.3-.9 1.2-1.3 2-1zm18.4 0c.3.1.6.4.7.7v1.1c-.1.3-.4.6-.7.7l-2.2.1-2.2-.1c-.2-.1-.4-.4-.4-.6 0-.4.3-.7.7-.7.3 0 .7.3.7.6v.1h1.4v-.4c0-.5.1-.8.3-1.1.3-.5 1.1-.7 1.7-.4zM4.2 17h4.2v-4.2H4.2V17zM7 15.6H5.6v-1.4H7v1.4zm8.5 1.4h4.3v-4.2h-4.3V17zm2.9-1.4h-1.5v-1.4h1.5v1.4z"/></symbol>
  <symbol id="cat-kids" viewBox="0 0 24 24"><path d="M7.6 0a2 2 0 0 0-1.5 2.2l.5 2.3.5 2v4.8h-.9v.2a474.6 474.6 0 0 0-.6 12.3v.2h5l.5-2.7.6-2.8c.2-.2.4-.2.6 0l.8 3.8.3 1.7h5v-.2a653.6 653.6 0 0 1-.6-12.3v-.2H17V6.5l.5-2 .5-2.3c.1-.8-.4-1.6-1.1-2a2 2 0 0 0-2.7.9l-.7 2.4-.5 2.2H11l-.5-2.2C10 1 10 1 9.6.5a2 2 0 0 0-2-.4Zm.9 1.5.2.2a25 25 0 0 1 1 4H8.3L8 3.9A13 13 0 0 1 7.5 2c0-.5.6-.7 1-.5Zm7.7 0c.2.1.3.3.3.5 0 .1 0 .8-.4 2l-.4 1.7h-1.4a109.7 109.7 0 0 0 1-4c.2-.3.7-.4 1-.2Zm-.7 7.7v2.1h-7V7.1h7v2.1Zm1 4.5v1.2l.1.4-.6-.6a6 6 0 0 0-.6-.5l-1 1 1.2 1 1 1.2.2 2.4V22.6h-2.2l-.4-2.2c-.5-2.3-.5-2.5-.9-2.9a1.8 1.8 0 0 0-2.6 0c-.4.5-.4.4-1 3.5l-.2 1.6H7v-.2l.1-2.6.1-2.4 1.1-1.1L9.5 15l-1-1-.5.6-.6.6V13.6l.1-.8h9v.8Z"/></symbol>
  <symbol id="cat-kitchen" viewBox="0 0 24 24"><path d="M10.9 0C8.7.2 6.6 1 4.7 2.5A11.6 11.6 0 0 0 .2 9.9c-.8 4.7 1.2 9.4 5.2 12l.4.4c.1.3.3.7.6 1 .6.6 1.6.8 2.4.4l.2-.1.4.1c.9.2 1.5.3 2.6.3s1.7-.1 2.6-.3l.4-.1.3.1c.6.3 1.2.3 1.9 0 .5-.2 1-.9 1.1-1.4 0-.2.1-.2.4-.4a12 12 0 0 0 5.3-11c-.2-2.3-1-4.4-2.5-6.3-.4-.6-1.6-1.8-2.2-2.2A12.7 12.7 0 0 0 10.9 0zM13 1.5c2.7.3 5.4 1.6 7.1 3.7 1.8 2.2 2.7 5 2.5 7.8-.2 1.6-.7 3.2-1.5 4.5-.6 1-1.5 2-2.3 2.7l-.4.3V4.3h-.5l-.9.1c-2.2.3-3.9 2-4.2 4.2l-.1 4.4v4h1.4V22.3l-.5.2h-3.3l-.5-.1v-6.8H8.5v-2.8l.4-.1c.5-.2 1-.5 1.4-.9.4-.5.7-.8.9-1.5l.1-3.1V4.4H9.9v4.2H8.5V4.3H7.1v4.2H5.7V4.3h-.9l.4-.4c2.1-1.8 5-2.7 7.8-2.4zm-8.6 8.6c.2.7.4 1 .9 1.5.4.4.9.7 1.4.9l.4.1v2.8H5.7v5.1l-.4-.3a10.7 10.7 0 0 1-4-8.2c0-2.4.9-5 2.5-6.8l.4-.4v2.5l.2 2.8zm12.5.5v4.9h-2.8V12l.1-3.8.2-.5a3.7 3.7 0 0 1 2.4-2l.1 4.9zm-7.2-.7-.1.3c-.4.7-1.3 1.2-2.1 1-.6-.1-1.2-.5-1.5-1l-.2-.3h3.9zm-1.2 9.6-.1 2.7c-.1.2-.4.4-.6.4-.2 0-.5-.2-.6-.4l-.1-2.7v-2.6h1.4v2.6zm8.4 0-.1 2.7c-.1.2-.4.4-.6.4-.2 0-.5-.2-.6-.4l-.1-2.7v-2.6h1.4v2.6z"/></symbol>
  <symbol id="cat-toys" viewBox="0 0 24 24"><path d="M6.5 0c-1.2.4-2 1.4-2 2.7 0 1.1.8 2.1 2 2.5h.1v.5c-.2.5-.3 1-.3 1.7 0 .6.2 1.3.4 1.7 0 .2 0 .2-.5.6a13.1 13.1 0 0 0-4.4 7.2l-.2.6.1.3c.3.5.8 1 1.4 1.3.3.2.4.2.3.3v1.2A3.8 3.8 0 0 0 6.9 24a4 4 0 0 0 2.4-.7 4.4 4.4 0 0 0 1-1h.5a5 5 0 0 0 3 0l.6.8c.8.6 1.8 1 2.7.9a3.8 3.8 0 0 0 3.5-4.6l.4-.3c.5-.3 1-.8 1.3-1.3l.2-.3-.2-.6A17 17 0 0 0 20 12a11.8 11.8 0 0 0-2.7-2.7V9a5.7 5.7 0 0 0 0-3.8l.3-.1a2.6 2.6 0 0 0 .7-4.8c-.5-.3-.9-.4-1.5-.4s-1 .1-1.4.5c-.5.3-.9.8-1 1.2 0 .2 0 .2-.6 0s-1-.3-1.9-.3c-.7 0-1.2.1-1.8.3-.5.2-.5.2-.5 0C9.5 1.1 8.9.5 8.3.2 7.7 0 7 0 6.5.1Zm1.2 1.5c.3.1.5.4.6.6.2.4.2.5-.2.9a6 6 0 0 0-.6.6l-.2.3H7c-.5 0-.8-.3-1-.6-.4-.7 0-1.5.7-1.8h.9Zm9.8 0c.6.3.9 1 .6 1.7-.2.4-.6.6-1 .7h-.3l-.2-.3A6 6 0 0 0 16 3c-.3-.3-.3-.3-.3-.5 0-.3.3-.8.8-1h1ZM12.9 3A4.4 4.4 0 0 1 16.3 8c-.1.6-.4 1.3-.7 1.6l-.1-.4A3.4 3.4 0 0 0 12 6c-.6 0-1 .1-1.5.4a3.4 3.4 0 0 0-2 3v.3c-.3-.3-.6-1-.7-1.6V6.3c.4-1.7 1.7-3 3.3-3.4H13Zm-.4 4.5A2 2 0 0 1 14 8.8l.1.7c0 .4 0 .5-.2.8a2.2 2.2 0 0 1-1.2 1v-.9l.5-.5.6-.5h-3.5l.5.5.5.5v.9h-.2l-1-1-.1-.8v-.7a2 2 0 0 1 2.5-1.4Zm-5.4 3.8A9.3 9.3 0 0 0 4.6 17c0 .4 0 .4-.3.7L4 18s-.6-.3-.7-.5l-.2-.2.1-.4c.3-1 1-2.4 1.5-3.4.6-1 1.5-2 2.3-2.6.4-.3.4-.4.5-.3l-.4.6Zm9.9-.4c.6.4 1.4 1.3 2 2.1.7 1.1 1.5 2.7 1.9 4v.4l-.1.2-.8.5-.2-.3-.3-.6a9.5 9.5 0 0 0-2.7-6l-.2-.4c0-.1 0-.1.4 0Zm-8.1 1.1a6 6 0 0 0 2.4.9 5.8 5.8 0 0 0 4-.9l.2-.2a7.5 7.5 0 0 1 2.3 3.6l.3 1.2h-1.9a3.9 3.9 0 0 0-3 2.8 6 6 0 0 0 0 1.5c0 .2 0 .2-.3.2-.5.2-1.4.1-1.8 0h-.2v-.6a3.8 3.8 0 0 0-3-4 4.6 4.6 0 0 0-1.9.1l.4-1.4c.2-.8.7-1.8 1.2-2.3l1-1 .3.1Zm-1.2 6c.6 0 1.2.5 1.5 1 .6 1 .4 2.2-.3 3-.5.5-1 .7-1.7.7s-1.2-.2-1.7-.7c-1-1-1-2.4 0-3.4.6-.6 1.4-.9 2.2-.7Zm9.6 0c.5 0 1 .3 1.3.6 1 1 1 2.4 0 3.4-.5.5-1 .7-1.7.7s-1.2-.2-1.7-.7c-.5-.5-.7-1-.7-1.7s.3-1.3.8-1.8 1.3-.7 2-.6Z"/></symbol>
  <symbol id="close" viewBox="0 0 24 24"><path d="m13.1 12 6.5-6.5c.3-.3.3-.8 0-1.1s-.8-.3-1.1 0L12 10.9 5.5 4.5c-.3-.3-.8-.3-1.1 0s-.3.8 0 1.1l6.5 6.5-6.5 6.5c-.3.3-.3.8 0 1.1l.5.2.5-.2 6.5-6.5 6.5 6.5.5.2.5-.2c.3-.3.3-.8 0-1.1L13.1 12z"/></symbol>
  <symbol id="menu" viewBox="0 0 24 24"><path d="M21 7.8H3a.8.8 0 0 1-.8-.8c0-.4.4-.8.8-.8h18c.4 0 .8.4.8.8s-.4.8-.8.8ZM21 12.8H3a.8.8 0 0 1-.8-.8c0-.4.4-.8.8-.8h18c.4 0 .8.4.8.8s-.4.8-.8.8ZM21 17.8H3a.8.8 0 0 1-.8-.8c0-.4.4-.8.8-.8h18c.4 0 .8.4.8.8s-.4.8-.8.8Z"/></symbol>
  <symbol id="search" viewBox="0 0 24 24"><path d="M11.5 21.75c-5.65 0-10.25-4.6-10.25-10.25S5.85 1.25 11.5 1.25s10.25 4.6 10.25 10.25-4.6 10.25-10.25 10.25Zm0-19a8.76 8.76 0 0 0 0 17.5 8.76 8.76 0 0 0 0-17.5ZM22 22.75a.74.74 0 0 1-.53-.22l-2-2a.75.75 0 0 1 0-1.06.75.75 0 0 1 1.06 0l2 2c.29.29.29.77 0 1.06a.74.74 0 0 1-.53.22Z"/></symbol>
  <symbol id="favorites" viewBox="0 0 24 24"><path d="M12 21.6h-.9c-3.8-1.4-9.8-6-9.8-13A6.3 6.3 0 0 1 12 4.3a6.2 6.2 0 0 1 4.4-1.9c3.5 0 6.4 2.9 6.4 6.4 0 6.9-6.1 11.5-10 12.8l-.8.1ZM7.6 3.8a4.8 4.8 0 0 0-4.8 4.9c0 6.8 6.5 10.6 8.8 11.4h.8c2.3-.8 8.9-4.6 8.9-11.4 0-2.7-2.2-4.9-4.9-4.9-1.5 0-2.9.8-3.8 2-.3.4-1 .4-1.2 0-1-1.3-2.3-2-3.8-2Z"/></symbol>
  <symbol id="homepage" viewBox="0 0 24 24"><path d="m22.2 11.8-9-9-.7-.6a.7.7 0 0 0-1 0l-9.7 9.6A1.5 1.5 0 0 0 3 14.4h1V22H20v-7.6h1a1.5 1.5 0 0 0 1.5-1.5c0-.4-.1-.8-.4-1Zm-8.9 8.5h-2.6v-4.7h2.6v4.7Zm5.1-7.6v7.6h-3.6V15c0-.5-.4-1-1-1h-3.7a1 1 0 0 0-1 1v5.3H5.7v-7.6H3.3L12 4l.5.6 8.2 8.1h-2.3Z"/></symbol>
  <symbol id="faq" viewBox="0 0 24 24"><path d="M8 22.3c-.3 0-.6 0-.8-.2-.6-.3-1-.9-1-1.5V19c-3-.3-5-2.5-5-5.7v-6C1.3 4 3.6 1.7 7 1.7h10c3.4 0 5.8 2.3 5.8 5.7v6c0 3.5-2.4 5.8-5.8 5.8h-3.8L9 22c-.3.2-.7.3-1 .3ZM7 3.2c-2.6 0-4.3 1.6-4.3 4.2v6c0 2.6 1.7 4.3 4.3 4.3.4 0 .8.3.8.7V20.8h.3l4.5-3 .4-.1h4c2.6 0 4.3-1.7 4.3-4.3v-6c0-2.6-1.7-4.2-4.3-4.2H7Z"/><path d="M12 12.1a.8.8 0 0 1-.8-.7V11c0-1.1.9-1.7 1.2-1.9.4-.2.5-.4.5-.7 0-.5-.4-.9-.9-.9a1 1 0 0 0-1 1c0 .3-.3.7-.7.7a.8.8 0 0 1-.7-.8 2.4 2.4 0 0 1 4.8 0c0 1.2-.8 1.7-1.1 2-.4.2-.6.4-.6.7v.2c0 .4-.3.7-.7.7ZM12 14.6a.7.7 0 1 1 0-1.5.7.7 0 0 1 0 1.5Z"/></symbol>
  <symbol id="faq-add" viewBox="0 0 24 24"><path d="M1.5.1C.8.3.2.8.1 1.5v21c.2.7.8 1.3 1.6 1.5h6.2l6.1-.1c.6-.3 1-.7 1.2-1.3l.1-2.3v-2l.2-.1c.4-.1.9-.6 1-1v-.1H19l.1.3c.1.3.4.6.8.8l.6.1.7-.1c.3-.1.6-.4.8-.8l.1-.7-.1-.7a2 2 0 0 0-1.1-.9c-.7-.2-1.5.2-1.8.8l-.1.3h-2.5l-.1-.3c-.2-.3-.5-.7-.8-.8-.3-.1-.3-.1-.3-.3v-.2H18c3 0 3.1 0 3.8-.3a3 3 0 0 0 1.4-1.7L24 8l-.1-.2-.1-.1h-8.5V4.6l-.1-3.3C15 .7 14.6.3 14 0H7.7L1.5.1zm12.3.9c.4.2.6.6.6 1.1v.3H.8V2l.1-.5c.2-.3.4-.6.8-.7h11.9l.2.2zm.6 6.6h-1.9l-.2-.9c-.1-.8-.2-.9-.3-1l-.1-.1h-1l-1.1.1c-.2.2-.2.4 0 .6l.9.1h.8v.3a86.4 86.4 0 0 0 1.5 8l.8.1h.7v.4l-.3.1c-.3.1-.6.4-.8.7l-.1.7.1.7.8.8.2.1v2.5H.8V3.2h13.6v4.4zm8.7.8-.8 4.2c-.2.7-.8 1.2-1.5 1.3L17 14h-3.5v-.1l-.9-5.4v-.1h10.5zM15 16c.4.1.6.5.6.9 0 .2-.2.5-.4.6-.5.3-1.2-.1-1.2-.7 0-.3.1-.4.3-.6.2-.2.4-.2.7-.2zm5.6 0c.2.1.5.3.5.5.1.2 0 .6-.1.7-.3.4-1 .5-1.3 0-.3-.4-.1-1 .4-1.2h.5zm-6.2 5.9c0 .5-.2.9-.6 1.1l-.2.1h-6L1.5 23c-.4-.2-.7-.6-.7-1.1v-.4h13.6v.4zM4.9 1.3l-.1.4c.1.3.3.3.8.3s.7 0 .7-.2c.1-.2 0-.4-.1-.5l-.6-.1-.7.1zm2.4 0v.5c.1.2.3.2 1.5.2 1.3 0 1.4 0 1.5-.3.1-.1 0-.3-.1-.4l-1.5-.1H7.4l-.1.1zM6.1 7.4v.2l-.2.3A2.2 2.2 0 0 0 4 10.1c0 1 .7 1.9 1.8 2.2.2.1.3.2.3.4v1.2c0 1.7 0 1.6-.4 1.4-.5-.3-.8-.7-.9-1.3l-.2-.4h-.5L4 14c0 1 .7 1.9 1.8 2.2.2.1.3.2.3.5 0 .2.2.4.4.4s.4-.2.4-.4v-.1c0-.2.1-.4.3-.4l.6-.3c1.3-.8 1.5-2.5.4-3.5a2 2 0 0 0-1-.6c-.2 0-.3-.2-.3-.4V8.7l.7.4c.4.2.5.5.6.9l.2.4c.1.1.3.1.4 0L9 10c0-.9-.8-1.9-1.8-2.1-.2 0-.3-.2-.3-.4v-.1c0-.2-.1-.4-.4-.4-.2 0-.4.2-.4.4zm0 2.7v1.3l-.1.1-.8-.6c-.6-.8-.3-1.7.6-2.2.3-.2.3-.3.3 1.4zm1.3 2.5c.2.1.5.4.6.7l.1.6c0 .5-.1.7-.4 1l-.7.4v-2.8l.1-.1.3.2zM6.3 22c-.3.1-.3.4-.1.6l.1.1H9l.1-.1c.2-.2.2-.4 0-.5l-.2-.1H6.3z"/></symbol>
  <symbol id="faq-online" viewBox="0 0 24 24"><path d="M2.2.1 2 .3v3.2h-.5l-.7.1-.7.7-.1.3v13.8l.1.2.7.7.3.2H9v1.2l-.4.2a3 3 0 0 0-1.5 1.8L7 23H6v1h12v-1h-1l-.1-.3c-.2-.8-.8-1.4-1.5-1.7l-.4-.3v-1.2h7.9l.3-.2c.3-.2.5-.3.7-.7l.1-.2V4.6l-.1-.3c-.1-.3-.4-.5-.7-.7l-2.1-.1h-1.9l-.2-.2c-.2-.3-.7-.8-1-.9a4 4 0 0 0-2.2-.3 3 3 0 0 0-1.7 1.2l-.2.2H12V.3s0-.3-.3-.3H7L2.2.1zM11 8h-.8l-1 .1c-.2.1-.2.3-.2.8v.5l-.8-.7-.9-.7H3V1h8v7zm6-4.9c.4.1.6.2.9.5.5.5.7 1 .6 1.8-.3 2.2-1.9 3.3-3.1 2-.8-.8-1.1-2.4-.7-3.3a2 2 0 0 1 2.3-1zM2 6.6v2.1c.2.3.2.3 2.7.3H7l1.2 1a7 7 0 0 0 1.3 1l.5-.2V9h1.7l.1-.1.2-.2V4.5h1.5v.7c0 .7 0 1 .3 1.5.2.5.5 1 .9 1.4.3.3.3.3 0 .6-.2.2-.3.2-.8.3-1.2.1-2 .7-2.3 1.8l-.1 1.9v1.7H1V4.8c.1-.2.3-.3.7-.3H2v2.1zm20.7-2c.3.1.3-.1.3 5.1v4.8h-1.5v-1.7c0-1.9 0-1.9-.3-2.4s-.8-1-1.4-1.2l-.7-.2c-.5 0-.6-.1-.8-.3-.3-.2-.3-.2.1-.6a4 4 0 0 0 1.1-2.9v-.7H21l1.7.1zM16.3 9H17.2l.5.6c.3.3.7.4 1.2.4.5.1.9.2 1.1.5.4.4.4.5.4 2.4v1.6h-1V12h-1v2.5h-4V12h-1v2.5h-1v-1.6l.1-1.9c.2-.6.7-.9 1.5-1 .7-.1 1.3-.4 1.6-.8.1-.2.2-.2.3-.2 0-.1.2 0 .4 0zm6.7 7.8c0 1.4 0 1.5-.3 1.7l-10.7.1-10.7-.1c-.3-.2-.3-.3-.3-1.7v-1.3h22v1.3zm-9 3.7h-.5v1h.2c.9 0 1.7.5 2 1.1.3.4.6.4-3.7.4l-3.9-.1.5-.8 1.2-.6 1.3-.1h1v-1h-2v-1h4v1.1z"/><path d="M4.5 3.5c0 .3.2.5.5.5h4c.3 0 .5-.2.5-.5S9.3 3 9 3H5c-.3 0-.5.2-.5.5zM4.5 5.5c0 .3.2.5.5.5h4c.3 0 .5-.2.5-.5S9.3 5 9 5H5c-.3 0-.5.2-.5.5zM2 17.5h1v-1H2v1zM3.5 17.5h1v-1h-1v1z"/></symbol>
  <symbol id="faq-phone" viewBox="0 0 24 24"><path d="M2.4.1C1.5.3.7 1.1.5 2v20c.2 1 1 1.8 2 2h5.1c5.3 0 5.1 0 5.7-.3.4-.2.8-.6 1-1 .3-.5.3-.7.3-2.5v-1.7h9V5.6h-9V3.9c0-1.9 0-2-.3-2.6-.2-.4-.6-.8-1-1-.7-.3-.5-.3-5.8-.3L2.4.1zm1.8 2.7L5 4.2h5l1.7-2.8h.3c.4 0 .7.2.9.5l.1.2v3.5H1.9V4c0-1.7 0-1.9.2-2.2.2-.3.5-.4.9-.4h.3l.9 1.4zm5.9-1.4-.4.7-.4.7H5.9l-.4-.6-.4-.6-.1-.2h5.1zm12 15.5H1.9V7.1h20.3v9.8zm-9 4.9-.1.3-.4.4-.2.1H7.6l-5-.1-.3-.3C2 21.9 2 21.8 2 20v-1.6h11.3l-.2 3.4zm1.2-11.9h2.8V8.5h-2.8v1.4zM9 11.1l-2.5 2.5-2-2-1 1 3 3 6-6-.5-.5-.5-.5L9 11.1zm5.3 1.6h4.3v-1.4h-4.3v1.4zm0 2.8h6.4v-1.4h-6.4v1.4zm-8.2 5.7H9v-1.4H6.1v1.4z"/></symbol>
  <symbol id="basket" viewBox="0 0 24 24"><path d="M18.2 17.8H7.5A3.6 3.6 0 0 1 4 13.8l.8-10c0-.3 0-.6-.3-.8a1 1 0 0 0-.8-.4H2a.8.8 0 0 1-.8-.7c0-.4.4-.8.8-.8h1.7a2.6 2.6 0 0 1 2.5 2h12.5c1 0 2 .3 2.6 1 .7.8 1 1.7 1 2.7l-.6 7.5a3.6 3.6 0 0 1-3.5 3.3ZM6.2 4.6 5.6 14a2 2 0 0 0 2 2.2h10.7c1 0 2-.8 2-1.9l.6-7.5a2 2 0 0 0-2-2.2H6.2ZM16.3 22.8a2 2 0 0 1-2-2c0-1.2.8-2 2-2a2 2 0 0 1 2 2 2 2 0 0 1-2 2Zm0-2.6c-.3 0-.6.3-.6.6 0 .2.3.4.6.4.2 0 .4-.2.4-.4 0-.3-.2-.6-.4-.6ZM8.3 22.8a2 2 0 0 1-2-2c0-1.2.9-2 2-2a2 2 0 0 1 2 2 2 2 0 0 1-2 2Zm0-2.6c-.3 0-.6.3-.6.6 0 .2.3.4.5.4.3 0 .6-.2.6-.4 0-.3-.3-.6-.6-.6Z"/><path d="M21 8.8H9a.8.8 0 0 1-.8-.8c0-.4.4-.8.8-.8h12c.4 0 .8.4.8.8s-.4.8-.8.8Z"/></symbol>
  <symbol id="quality" viewBox="0 0 24 24"><path d="M14.9 9.5h-.6l.1-1.2c0-1-.6-2.1-1.7-2.1-.4 0-.7.2-.9.4-.2.2-.4.6-.4.9 0 1-.3 1.2-1 1.7l-.2.2-.4-.3a1 1 0 0 0-.7-.3h-.8c-.3 0-.7.2-.9.4-.3.3-.4.6-.4 1V15c0 .4.1.7.4 1 .3.3.6.4 1 .4h.7c.4 0 .7-.2 1-.4a4 4 0 0 0 1.9.4h3a2 2 0 0 0 2.1-2.1v-2.6a2 2 0 0 0-.6-1.5c-.5-.4-1-.6-1.6-.7zm-2 1c.1.2.3.3.5.3h1.5l.6.2c.2.2.2.4.2.6v2.6l-.2.6c-.1.2-.3.2-.6.2H12a3 3 0 0 1-1.6-.4v-3.8l.7-.5c.7-.5 1.5-1.1 1.5-2.6l.1-.2c.5 0 .5.8.5.9 0 .5-.1 1.1-.3 1.6v.5zm-3.7-.3V15h-.9l-.1-.1v-4.8l.1-.1H9l.2.2zM23.3 12c-.1-.5-.3-1-.6-1.4l-.3-.6.1-.7c.2-.5.2-1 0-1.6-.2-.5-.6-.8-1.1-1.1l-.5-.4-.2-.7c0-.5-.2-1-.6-1.4-.4-.3-.9-.5-1.4-.6l-.7-.2-.5-.6c-.2-.5-.6-.8-1.1-1.1h-1.5l-.7.1-.6-.3C13 1 12.6.8 12 .8c-.5.1-1 .3-1.4.6l-.6.3-.7-.1c-.5-.2-1-.2-1.6 0-.5.3-.9.6-1.1 1.1l-.4.5c-.2.2-.5.2-.7.3-.5 0-1 .2-1.5.6-.3.4-.5.9-.5 1.4l-.2.7-.6.4c-.5.2-.8.6-1.1 1.1v1.5l.1.7-.3.6c-.4.5-.6 1-.6 1.5.1.5.3 1 .6 1.4l.3.6-.1.7c-.2.5-.2 1 0 1.6.2.5.6.8 1.1 1.1l.5.4.2.7c0 .5.2 1 .6 1.4.4.3.9.5 1.4.6l.7.2.5.6c.2.5.6.8 1.1 1.1h1.5l.7-.1.6.3c.4.3.9.5 1.5.6.5-.1 1-.3 1.4-.6l.6-.3.7.1c.5.2 1 .2 1.6 0 .5-.2.8-.6 1.1-1.1l.4-.5.7-.2c.5 0 1-.2 1.4-.6.3-.4.5-.9.6-1.4l.2-.7.6-.5c.5-.2.8-.6 1.1-1.1.2-.5.1-1 0-1.5l-.1-.7.3-.6c.4-.5.6-1 .7-1.5zm-2.1 3.1.1.8a1 1 0 0 1-.6.5c-.4.2-.7.5-.9.8l-.4 1.2-.2.7-.7.2c-.4 0-.8.2-1.2.4l-.8.9-.5.6-.8-.1-1.3-.1c-.4.1-.8.3-1.1.6-.3.2-.5.4-.8.4l-.7-.4c-.3-.3-.7-.4-1.1-.6h-.4l-.9.1-.8.1a1 1 0 0 1-.5-.6c-.2-.4-.5-.7-.8-.9l-1.2-.4-.7-.2-.2-.7c0-.4-.2-.8-.4-1.2l-.9-.8-.6-.5.1-.8.1-1.3c-.1-.4-.3-.8-.6-1.1-.2-.2-.4-.4-.4-.7l.4-.7c.3-.3.4-.7.6-1.1.1-.4 0-.8-.1-1.2-.2-.3-.2-.6-.1-.8l.5-.5c.4-.2.7-.5 1-.9l.4-1.2.2-.7.7-.2c.4 0 .8-.2 1.2-.4.4-.3.7-.6.9-1l.5-.6.8.1 1.3.1c.4-.1.8-.3 1.1-.6.1-.1.3-.3.6-.3l.7.4c.3.3.7.4 1.1.6.4.1.8 0 1.2-.1l.8-.1c.2.1.4.3.5.6.2.4.5.7.8.9l1.2.4.7.2.2.7c0 .4.2.8.4 1.2l.9.8.6.5-.1.8-.1 1.3c.1.4.3.8.6 1.1.2.2.3.4.3.7l-.3.7c-.3.3-.4.7-.6 1.1.2.4.2.9.3 1.3z"/></symbol>
  <symbol id="stock" viewBox="0 0 24 24"><path d="M23.1 4.7 20.3 1a.5.5 0 0 0-.5-.3H4.3l-.6.3L.9 4.7l-.1.4v17.5l.2.5.5.2h21.2c.4 0 .7-.3.7-.7V5.1l-.3-.4zm-8.1 5-.6.6-.8-.8a.8.8 0 0 0-.5-.2l-.5.2-.6.8-.8-.8c-.2-.2-.7-.2-.9 0l-.8.8-.5-.6v-4h6v4zm1.1-5.3-.8-2.3h4.1l1.8 2.3h-5.1zm-13.3 0 1.8-2.3h4.1l-.8 2.3H2.8zm-.7 1.3h5.6V10l.2.5 1.2 1.2c.2.2.7.2.9 0l.8-.8.8.8c.2.2.7.2.9 0l.8-.8.8.8c.2.2.7.2.9 0l1.2-1.2.2-.5V5.7H22v16.2H2.1V5.7zm7.1-1.3.8-2.3h4l.8 2.3H9.2zm-.1 11.4H3.4l-.5.2-.2.5v4.1l.2.5.5.2h5.7l.5-.2.2-.5v-4.1l-.2-.5a.8.8 0 0 0-.5-.2zm-.6 1.3v2.8H4.1v-2.8h4.4z"/></symbol>
  <symbol id="sale" viewBox="0 0 24 24"><path d="M12 22.8c-.6 0-1.2-.3-1.7-.7l-1.5-1.6-.6-.2H6.1c-1.3 0-2.4-1-2.4-2.4v-2.1l-.2-.6-1.6-1.5a2.3 2.3 0 0 1 0-3.4l1.6-1.5.2-.6V6.1c0-1.3 1-2.4 2.4-2.4h2.1l.6-.2 1.5-1.6c1-.8 2.5-.8 3.4 0l1.5 1.6.6.2h2.1c1.3 0 2.4 1 2.4 2.4v2.1l.2.6 1.6 1.5a2.3 2.3 0 0 1 0 3.4l-1.6 1.5-.2.6v2.1c0 1.3-1 2.4-2.4 2.4h-2.1l-.6.2-1.5 1.6c-.5.4-1 .6-1.7.6ZM4.5 14c.4.4.7 1.1.7 1.7v2.1c0 .5.4.9.9.9h2.1c.6 0 1.3.3 1.7.7l1.5 1.5c.3.3.9.3 1.2 0l1.5-1.5c.4-.4 1.1-.7 1.7-.7h2.1c.5 0 .9-.4.9-.9v-2.1c0-.6.3-1.3.7-1.7l1.5-1.5a.8.8 0 0 0 0-1.2l-1.5-1.5c-.4-.4-.7-1.1-.7-1.7V6.1c0-.5-.4-.9-.9-.9h-2.1c-.6 0-1.3-.3-1.7-.7L12.6 3a.9.9 0 0 0-1.2 0L9.9 4.5c-.4.4-1.1.7-1.7.7H6.1c-.5 0-.9.4-.9.9v2.1c0 .6-.3 1.3-.7 1.7L3 11.4a.8.8 0 0 0 0 1.2l1.5 1.5Z"/><path d="M15 16a1 1 0 0 1-1-1c0-.6.4-1 1-1 .5 0 1 .4 1 1s-.4 1-1 1ZM9 10a1 1 0 0 1-1-1c0-.6.4-1 1-1s1 .4 1 1-.4 1-1 1ZM9 15.8c-.2 0-.4-.1-.5-.3a.8.8 0 0 1 0-1l6-6c.3-.3.7-.3 1 0 .3.3.3.7 0 1l-6 6c-.1.2-.3.3-.5.3Z"/></symbol>
  <symbol id="delivery-local" viewBox="0 0 24 24"><path d="M12 14.2a3.9 3.9 0 1 1 0-7.8 3.9 3.9 0 0 1 0 7.8Zm0-6.3a2.4 2.4 0 1 0 0 4.8 2.4 2.4 0 0 0 0-4.8Z"/><path d="M12 22.8A6 6 0 0 1 7.9 21c-3-2.9-6.2-7.4-5-12.8 1.1-4.9 5.4-7 9.1-7 3.7 0 8 2.1 9.1 7 1.2 5.4-2 10-5 12.8a6 6 0 0 1-4.1 1.7Zm0-20c-3 0-6.6 1.5-7.6 5.9-1.1 4.7 1.8 8.7 4.5 11.3a4.4 4.4 0 0 0 6.2 0c2.7-2.6 5.6-6.6 4.6-11.3-1-4.4-4.8-6-7.7-6Z"/></symbol>
  <symbol id="delivery-country" viewBox="0 0 24 24"><path d="M15.7 21.4c-.5 0-1 0-1.3-.3l-5.2-2.6H8L5.7 20c-1 .6-2.1.7-3 .2-.7-.5-1.2-1.4-1.2-2.6V7.8c0-1 .6-2 1.4-2.4l4.4-2.5a3 3 0 0 1 2.6 0L15 5.5h1.2L18.6 4c1-.6 2.1-.6 2.9-.2.8.5 1.2 1.4 1.2 2.6v9.7c0 1-.6 2-1.3 2.4L17 21.1a3 3 0 0 1-1.3.3Zm-7-4.5 1.2.3 5.2 2.6c.3.2.9.1 1.2 0l4.3-2.5c.3-.2.6-.7.6-1V6.4c0-.6-.1-1.1-.5-1.3-.3-.2-.8-.1-1.3.2L17 6.8a3 3 0 0 1-2.6 0L9.2 4.2C8.9 4 8.3 4 8 4.2L3.7 6.7c-.3.2-.7.7-.7 1v9.8c0 .6.2 1.1.5 1.3.4.2.9.1 1.4-.2l2.4-1.3c.4-.3.9-.4 1.3-.4Z"/><path d="M8.6 17.8a.8.8 0 0 1-.8-.8V4c0-.4.4-.8.8-.8s.7.4.7.8v13c0 .4-.3.8-.7.8ZM15.7 20.8a.8.8 0 0 1-.7-.8V6.6c0-.4.3-.7.7-.7.4 0 .8.3.8.7V20c0 .4-.4.8-.8.8Z"/></symbol>
  <symbol id="social" viewBox="0 0 24 24"><path d="M17.8 7.9h.2a3.3 3.3 0 0 0 3.2-3.3c0-1.8-1.5-3.3-3.3-3.3s-3.3 1.5-3.3 3.3c0 1.8 1.4 3.2 3.2 3.3zm.1-5.1c1 0 1.8.8 1.8 1.8s-.8 1.8-1.7 1.8h-.2c-1-.1-1.7-.9-1.7-1.8 0-1 .8-1.8 1.8-1.8zm4.8 9.2c0 .9-.5 1.7-1.4 2.3-.9.6-2.1.9-3.3.9-.4 0-.8 0-1.2-.1-.4-.1-.7-.5-.6-.9.1-.4.5-.7.9-.6 1.2.2 2.5 0 3.4-.6.5-.3.7-.7.7-1.1 0-.4-.3-.8-.7-1.1-.9-.6-2.2-.8-3.4-.6-.4.1-.8-.2-.9-.6-.1-.4.2-.8.6-.9 1.6-.3 3.3 0 4.5.8.9.8 1.4 1.6 1.4 2.5zM5.9 7.9c.1 0 .1 0 0 0 .1 0 .1 0 0 0h.2C8 7.8 9.4 6.4 9.4 4.6a3.35 3.35 0 0 0-6.7 0c0 1.8 1.5 3.2 3.2 3.3zm.2-5.1c1 0 1.8.8 1.8 1.8s-.7 1.8-1.7 1.8H6c-1-.1-1.8-.8-1.8-1.8s.9-1.8 1.9-1.8zm1 12.4c-.4.1-.8.1-1.2.1-1.2 0-2.4-.3-3.3-.9-.9-.6-1.4-1.4-1.4-2.3s.5-1.7 1.4-2.3C3.8 9 5.5 8.7 7.1 9c.4.1.7.5.6.9-.1.4-.5.7-.9.6-1.2-.2-2.5 0-3.4.6-.4.1-.6.5-.6.9s.3.8.7 1.1c.9.6 2.2.8 3.4.6.4-.1.8.2.9.6 0 .4-.3.8-.7.9zm4.7.2h.2a3.3 3.3 0 0 0 3.2-3.3c0-1.8-1.5-3.3-3.3-3.3-1.8 0-3.3 1.5-3.3 3.3 0 1.8 1.4 3.2 3.2 3.3zm.1-5.2c1 0 1.8.8 1.8 1.8s-.8 1.8-1.7 1.8h-.2c-1-.1-1.7-.9-1.7-1.8 0-1 .8-1.8 1.8-1.8zm3.4 7a6.68 6.68 0 0 0-6.7 0c-.9.6-1.4 1.4-1.4 2.3s.5 1.7 1.4 2.3c.9.6 2.1.9 3.3.9s2.4-.3 3.3-.9c.9-.6 1.4-1.4 1.4-2.3s-.4-1.8-1.3-2.3zm-.8 3.4c-1.4.9-3.6.9-5 0-.5-.3-.7-.7-.7-1.1 0-.4.3-.8.7-1.1 1.4-.9 3.6-.9 5 0 .5.3.7.7.7 1.1 0 .4-.2.8-.7 1.1z"/></symbol>
</svg>
