<?xml version="1.0" standalone="no"?>
<!DOCTYPE svg PUBLIC "-//W3C//DTD SVG 20010904//EN"
 "http://www.w3.org/TR/2001/REC-SVG-20010904/DTD/svg10.dtd">
<svg version="1.0" xmlns="http://www.w3.org/2000/svg"
 width="700.000000pt" height="700.000000pt" viewBox="0 0 700.000000 700.000000"
 preserveAspectRatio="xMidYMid meet">
<metadata>
Created by potrace 1.14, written by Peter Selinger 2001-2017
</metadata>
<g transform="translate(0.000000,700.000000) scale(0.100000,-0.100000)"
fill="#000000" stroke="none">
<path d="M3468 6705 c-2 -2 -30 -6 -63 -9 -455 -51 -890 -312 -1124 -676 -82
-127 -166 -331 -186 -451 -4 -24 -9 -53 -12 -64 -3 -11 -6 -81 -8 -155 -3
-123 2 -171 31 -334 19 -100 112 -308 188 -421 109 -159 272 -315 442 -421 40
-25 74 -48 74 -50 0 -2 -31 -46 -68 -96 -162 -218 -196 -301 -195 -463 1 -215
144 -437 343 -533 47 -23 99 -44 115 -47 53 -11 139 -20 170 -19 38 1 155 14
175 19 8 2 49 7 90 10 41 3 82 8 90 10 8 2 47 6 85 10 39 3 77 8 85 10 8 2 44
6 80 10 36 3 81 8 100 10 19 3 58 7 85 10 79 9 149 17 165 20 9 2 47 6 85 10
39 3 81 8 95 10 14 2 52 6 85 10 33 3 77 8 98 10 74 10 113 14 167 20 30 4 66
8 80 10 152 21 197 22 237 3 49 -23 61 -74 40 -163 -3 -11 -22 -92 -42 -180
-46 -205 -137 -574 -169 -689 -39 -138 -95 -208 -205 -252 -55 -22 -92 -27
-296 -39 -49 -3 -121 -8 -160 -10 -38 -3 -106 -7 -150 -10 -44 -2 -114 -7
-155 -10 -41 -2 -113 -7 -160 -10 -47 -3 -121 -8 -165 -11 -282 -19 -357 -3
-464 106 -51 52 -57 63 -416 795 -132 269 -147 295 -205 352 -66 67 -146 112
-240 137 -40 11 -104 14 -230 13 -171 -2 -176 -3 -221 -29 -87 -51 -132 -125
-132 -218 0 -92 54 -177 140 -220 42 -21 63 -24 179 -25 72 -1 136 -5 143 -9
7 -5 21 -27 31 -50 56 -128 459 -931 493 -981 125 -183 327 -314 562 -360 66
-13 326 -14 480 -1 49 4 188 13 330 22 39 2 104 6 145 9 41 3 113 7 160 10
349 20 416 33 564 106 156 77 268 186 358 349 36 65 65 156 99 305 51 225 69
302 146 605 69 270 76 304 76 400 1 85 -3 119 -22 178 -61 188 -210 330 -406
388 -66 19 -206 26 -284 13 -28 -4 -78 -10 -113 -13 -35 -4 -79 -8 -98 -10
-152 -19 -184 -22 -350 -41 -80 -8 -160 -18 -179 -20 -18 -3 -59 -7 -90 -10
-31 -3 -72 -8 -91 -11 -19 -3 -51 -7 -70 -9 -111 -12 -160 -17 -314 -35 -378
-44 -376 -44 -417 -3 -17 16 -32 44 -35 63 -5 32 5 49 124 210 71 96 133 174
138 173 5 0 38 -4 74 -8 36 -4 79 -9 95 -11 71 -9 309 -2 373 11 15 3 45 8 67
11 22 4 63 13 90 20 28 8 57 16 65 18 55 14 159 54 237 91 83 39 245 137 279
168 7 7 27 23 45 37 63 47 194 187 252 268 86 120 172 296 204 417 20 78 27
115 38 195 7 49 7 236 0 290 -34 267 -143 508 -324 716 -171 196 -410 352
-671 438 -92 30 -160 45 -315 72 -39 7 -341 14 -347 9z m339 -485 c216 -45
393 -133 537 -269 256 -243 342 -572 230 -883 -117 -324 -435 -564 -824 -623
-70 -11 -234 -13 -293 -4 -28 5 -67 11 -86 14 -202 32 -435 156 -577 306 -283
301 -319 706 -93 1041 138 203 387 361 659 417 119 25 328 25 447 1z"/>
<path d="M4504 999 c-100 -18 -204 -102 -246 -197 -64 -143 -8 -331 122 -411
87 -54 206 -70 283 -37 20 8 37 13 37 10 0 -7 59 34 94 65 102 92 134 267 72
390 -71 138 -212 208 -362 180z"/>
<path d="M3409 925 c-236 -49 -345 -304 -217 -507 110 -174 350 -205 506 -64
22 20 55 66 73 102 53 107 44 231 -23 330 -74 111 -209 166 -339 139z"/>
</g>
</svg>
